<svg version="1.0" xmlns="http://www.w3.org/2000/svg"
    width="1166.000000pt" height="1280.000000pt" viewBox="0 0 1166.000000 1280.000000"
    preserveAspectRatio="xMidYMid meet">
    <metadata>
        Created by potrace 1.15, written by Peter Selinger 2001-2017
</metadata>
    <g transform="translate(0.000000,1280.000000) scale(0.100000,-0.100000)"
        fill="currentColor" stroke="none">
        <path
            d="M1843 12789 c-326 -54 -635 -355 -797 -776 -175 -453 -204 -993 -80
-1513 15 -63 27 -126 26 -140 0 -14 -27 -124 -60 -245 -33 -121 -103 -386
-156 -590 -52 -203 -247 -953 -432 -1665 l-338 -1295 1 -110 c0 -122 18 -189
73 -274 42 -66 6037 -6057 6101 -6098 91 -57 169 -78 294 -78 136 0 225 26
329 96 53 35 681 659 2417 2396 2560 2563 2388 2382 2425 2539 19 80 14 209
-10 287 -45 143 142 -49 -3075 3170 -1648 1649 -3024 3019 -3058 3043 -114 83
-246 118 -385 104 -35 -4 -315 -73 -623 -154 -308 -81 -739 -195 -959 -252
-219 -58 -399 -104 -401 -102 -1 2 -7 62 -14 133 -36 395 -148 741 -324 1005
-263 396 -599 578 -954 519z m212 -254 c229 -31 468 -249 624 -570 111 -229
175 -490 196 -802 l7 -102 -38 -10 c-411 -107 -1165 -305 -1344 -353 -102 -27
-211 -62 -242 -77 l-57 -29 -10 47 c-40 188 -45 239 -45 476 0 183 4 267 18
355 45 287 134 532 265 730 51 77 173 203 243 249 92 62 232 105 308 96 14 -2
47 -7 75 -10z" />
    </g>
</svg>