<svg width="1357" height="1147" viewBox="0 0 1357 1147" fill="none" xmlns="http://www.w3.org/2000/svg">
<circle cx="678.5" cy="572.5" r="207" fill="white" stroke="black" stroke-width="3"/>
<circle cx="179" cy="179" r="179" fill="white"/>
<circle cx="1178" cy="179" r="179" fill="white"/>
<circle cx="1178" cy="968" r="179" fill="white"/>
<circle cx="179" cy="968" r="179" fill="white"/>
<g filter="url(#filter0_d_4_19)">
<path d="M840.018 430.437L829.289 433.209L836.711 442.054L841.303 431.97L840.018 430.437ZM1018.61 283.194L1029.34 280.423L1021.91 271.577L1017.32 281.662L1018.61 283.194ZM840.537 432.612L1019.37 282.551L1018.09 281.019L839.252 431.08L840.537 432.612Z" fill="white"/>
</g>
<g filter="url(#filter1_d_4_19)">
<path d="M841.303 713.662L836.711 703.577L829.289 712.423L840.018 715.194L841.303 713.662ZM1017.32 863.97L1021.91 874.054L1029.34 865.209L1018.61 862.437L1017.32 863.97ZM839.252 714.551L1018.09 864.612L1019.37 863.08L840.537 713.019L839.252 714.551Z" fill="white"/>
</g>
<g filter="url(#filter2_d_4_19)">
<path d="M515.607 430.437L526.336 433.209L518.914 442.054L514.322 431.97L515.607 430.437ZM337.018 283.194L326.289 280.423L333.711 271.577L338.303 281.662L337.018 283.194ZM515.088 432.612L336.252 282.551L337.537 281.019L516.373 431.08L515.088 432.612Z" fill="white"/>
</g>
<g filter="url(#filter3_d_4_19)">
<path d="M514.322 713.662L518.914 703.577L526.336 712.423L515.607 715.194L514.322 713.662ZM338.303 863.97L333.711 874.054L326.289 865.209L337.018 862.437L338.303 863.97ZM516.373 714.551L337.537 864.612L336.252 863.08L515.088 713.019L516.373 714.551Z" fill="white"/>
</g>
<path d="M601.146 501.104C601.146 497.776 601.867 494.816 603.307 492.224C604.747 489.6 606.747 487.568 609.307 486.128C611.899 484.656 614.827 483.92 618.091 483.92C622.091 483.92 625.515 484.976 628.363 487.088C631.211 489.2 633.115 492.08 634.075 495.728H625.051C624.379 494.32 623.419 493.248 622.171 492.512C620.955 491.776 619.563 491.408 617.995 491.408C615.467 491.408 613.419 492.288 611.851 494.048C610.283 495.808 609.499 498.16 609.499 501.104C609.499 504.048 610.283 506.4 611.851 508.16C613.419 509.92 615.467 510.8 617.995 510.8C619.563 510.8 620.955 510.432 622.171 509.696C623.419 508.96 624.379 507.888 625.051 506.48H634.075C633.115 510.128 631.211 513.008 628.363 515.12C625.515 517.2 622.091 518.24 618.091 518.24C614.827 518.24 611.899 517.52 609.307 516.08C606.747 514.608 604.747 512.576 603.307 509.984C601.867 507.392 601.146 504.432 601.146 501.104ZM656.285 518L649.277 505.28H647.309V518H639.101V484.304H652.877C655.533 484.304 657.789 484.768 659.645 485.696C661.533 486.624 662.941 487.904 663.869 489.536C664.797 491.136 665.261 492.928 665.261 494.912C665.261 497.152 664.621 499.152 663.341 500.912C662.093 502.672 660.237 503.92 657.773 504.656L665.549 518H656.285ZM647.309 499.472H652.397C653.901 499.472 655.021 499.104 655.757 498.368C656.525 497.632 656.909 496.592 656.909 495.248C656.909 493.968 656.525 492.96 655.757 492.224C655.021 491.488 653.901 491.12 652.397 491.12H647.309V499.472ZM691.39 512.048H678.814L676.798 518H668.206L680.398 484.304H689.902L702.094 518H693.406L691.39 512.048ZM689.278 505.712L685.102 493.376L680.974 505.712H689.278ZM727.74 484.304V490.88H714.012V497.984H724.284V504.368H714.012V518H705.804V484.304H727.74ZM756.294 484.304V490.88H747.366V518H739.158V490.88H730.23V484.304H756.294ZM642.825 556.304L631.161 578.864V590H622.953V578.864L611.289 556.304H620.601L627.129 570.416L633.609 556.304H642.825ZM662.068 590.336C658.9 590.336 655.988 589.6 653.332 588.128C650.708 586.656 648.612 584.608 647.044 581.984C645.508 579.328 644.74 576.352 644.74 573.056C644.74 569.76 645.508 566.8 647.044 564.176C648.612 561.552 650.708 559.504 653.332 558.032C655.988 556.56 658.9 555.824 662.068 555.824C665.236 555.824 668.132 556.56 670.756 558.032C673.412 559.504 675.492 561.552 676.996 564.176C678.532 566.8 679.3 569.76 679.3 573.056C679.3 576.352 678.532 579.328 676.996 581.984C675.46 584.608 673.38 586.656 670.756 588.128C668.132 589.6 665.236 590.336 662.068 590.336ZM662.068 582.848C664.756 582.848 666.9 581.952 668.5 580.16C670.132 578.368 670.948 576 670.948 573.056C670.948 570.08 670.132 567.712 668.5 565.952C666.9 564.16 664.756 563.264 662.068 563.264C659.348 563.264 657.172 564.144 655.54 565.904C653.94 567.664 653.14 570.048 653.14 573.056C653.14 576.032 653.94 578.416 655.54 580.208C657.172 581.968 659.348 582.848 662.068 582.848ZM691.931 556.304V576.464C691.931 578.48 692.427 580.032 693.419 581.12C694.411 582.208 695.867 582.752 697.787 582.752C699.707 582.752 701.179 582.208 702.203 581.12C703.227 580.032 703.739 578.48 703.739 576.464V556.304H711.947V576.416C711.947 579.424 711.307 581.968 710.027 584.048C708.747 586.128 707.019 587.696 704.843 588.752C702.699 589.808 700.299 590.336 697.643 590.336C694.987 590.336 692.603 589.824 690.491 588.8C688.411 587.744 686.763 586.176 685.547 584.096C684.331 581.984 683.723 579.424 683.723 576.416V556.304H691.931ZM734.894 590L727.886 577.28H725.918V590H717.71V556.304H731.486C734.142 556.304 736.398 556.768 738.254 557.696C740.142 558.624 741.55 559.904 742.478 561.536C743.406 563.136 743.87 564.928 743.87 566.912C743.87 569.152 743.23 571.152 741.95 572.912C740.702 574.672 738.846 575.92 736.382 576.656L744.158 590H734.894ZM725.918 571.472H731.006C732.51 571.472 733.63 571.104 734.366 570.368C735.134 569.632 735.518 568.592 735.518 567.248C735.518 565.968 735.134 564.96 734.366 564.224C733.63 563.488 732.51 563.12 731.006 563.12H725.918V571.472ZM585.293 662.336C582.829 662.336 580.621 661.936 578.669 661.136C576.717 660.336 575.149 659.152 573.965 657.584C572.813 656.016 572.205 654.128 572.141 651.92H580.877C581.005 653.168 581.437 654.128 582.173 654.8C582.909 655.44 583.869 655.76 585.053 655.76C586.269 655.76 587.229 655.488 587.933 654.944C588.637 654.368 588.989 653.584 588.989 652.592C588.989 651.76 588.701 651.072 588.125 650.528C587.581 649.984 586.893 649.536 586.061 649.184C585.261 648.832 584.109 648.432 582.605 647.984C580.429 647.312 578.653 646.64 577.277 645.968C575.901 645.296 574.717 644.304 573.725 642.992C572.733 641.68 572.237 639.968 572.237 637.856C572.237 634.72 573.373 632.272 575.645 630.512C577.917 628.72 580.877 627.824 584.525 627.824C588.237 627.824 591.229 628.72 593.501 630.512C595.773 632.272 596.989 634.736 597.149 637.904H588.269C588.205 636.816 587.805 635.968 587.069 635.36C586.333 634.72 585.389 634.4 584.237 634.4C583.245 634.4 582.445 634.672 581.837 635.216C581.229 635.728 580.925 636.48 580.925 637.472C580.925 638.56 581.437 639.408 582.461 640.016C583.485 640.624 585.085 641.28 587.261 641.984C589.437 642.72 591.197 643.424 592.541 644.096C593.917 644.768 595.101 645.744 596.093 647.024C597.085 648.304 597.581 649.952 597.581 651.968C597.581 653.888 597.085 655.632 596.093 657.2C595.133 658.768 593.725 660.016 591.869 660.944C590.013 661.872 587.821 662.336 585.293 662.336ZM626.872 628.304V634.88H617.944V662H609.736V634.88H600.808V628.304H626.872ZM651.968 656.048H639.392L637.376 662H628.784L640.976 628.304H650.48L662.672 662H653.984L651.968 656.048ZM649.856 649.712L645.68 637.376L641.552 649.712H649.856ZM683.566 662L676.558 649.28H674.59V662H666.382V628.304H680.158C682.814 628.304 685.07 628.768 686.926 629.696C688.814 630.624 690.222 631.904 691.15 633.536C692.078 635.136 692.542 636.928 692.542 638.912C692.542 641.152 691.902 643.152 690.622 644.912C689.374 646.672 687.518 647.92 685.054 648.656L692.83 662H683.566ZM674.59 643.472H679.678C681.182 643.472 682.302 643.104 683.038 642.368C683.806 641.632 684.19 640.592 684.19 639.248C684.19 637.968 683.806 636.96 683.038 636.224C682.302 635.488 681.182 635.12 679.678 635.12H674.59V643.472ZM721.935 628.304V634.88H713.007V662H704.799V634.88H695.871V628.304H721.935ZM734.118 628.304V648.464C734.118 650.48 734.614 652.032 735.606 653.12C736.598 654.208 738.054 654.752 739.974 654.752C741.894 654.752 743.366 654.208 744.39 653.12C745.414 652.032 745.926 650.48 745.926 648.464V628.304H754.134V648.416C754.134 651.424 753.494 653.968 752.214 656.048C750.934 658.128 749.206 659.696 747.03 660.752C744.886 661.808 742.486 662.336 739.83 662.336C737.174 662.336 734.79 661.824 732.678 660.8C730.598 659.744 728.95 658.176 727.734 656.096C726.518 653.984 725.91 651.424 725.91 648.416V628.304H734.118ZM785.578 639.152C785.578 641.104 785.13 642.896 784.234 644.528C783.338 646.128 781.962 647.424 780.106 648.416C778.25 649.408 775.946 649.904 773.194 649.904H768.106V662H759.898V628.304H773.194C775.882 628.304 778.154 628.768 780.01 629.696C781.866 630.624 783.258 631.904 784.186 633.536C785.114 635.168 785.578 637.04 785.578 639.152ZM772.57 643.376C774.138 643.376 775.306 643.008 776.074 642.272C776.842 641.536 777.226 640.496 777.226 639.152C777.226 637.808 776.842 636.768 776.074 636.032C775.306 635.296 774.138 634.928 772.57 634.928H768.106V643.376H772.57Z" fill="black"/>
<path d="M58.4542 177.536H49.0222L47.5102 182H41.0662L50.2102 156.728H57.3382L66.4822 182H59.9662L58.4542 177.536ZM56.8702 172.784L53.7382 163.532L50.6422 172.784H56.8702ZM89.1012 161.912V182H82.9452V179.264C82.3212 180.152 81.4692 180.872 80.3892 181.424C79.3332 181.952 78.1572 182.216 76.8612 182.216C75.3252 182.216 73.9692 181.88 72.7932 181.208C71.6172 180.512 70.7052 179.516 70.0572 178.22C69.4092 176.924 69.0852 175.4 69.0852 173.648V161.912H75.2052V172.82C75.2052 174.164 75.5532 175.208 76.2492 175.952C76.9452 176.696 77.8812 177.068 79.0572 177.068C80.2572 177.068 81.2052 176.696 81.9012 175.952C82.5972 175.208 82.9452 174.164 82.9452 172.82V161.912H89.1012ZM104.719 176.78V182H101.587C99.355 182 97.615 181.46 96.367 180.38C95.119 179.276 94.495 177.488 94.495 175.016V167.024H92.047V161.912H94.495V157.016H100.651V161.912H104.683V167.024H100.651V175.088C100.651 175.688 100.795 176.12 101.083 176.384C101.371 176.648 101.851 176.78 102.523 176.78H104.719ZM120.496 161.696C122.8 161.696 124.648 162.464 126.04 164C127.432 165.512 128.128 167.6 128.128 170.264V182H122.008V171.092C122.008 169.748 121.66 168.704 120.964 167.96C120.268 167.216 119.332 166.844 118.156 166.844C116.98 166.844 116.044 167.216 115.348 167.96C114.652 168.704 114.304 169.748 114.304 171.092V182H108.148V155.36H114.304V164.612C114.928 163.724 115.78 163.016 116.86 162.488C117.94 161.96 119.152 161.696 120.496 161.696ZM151.342 171.632C151.342 172.208 151.306 172.808 151.234 173.432H137.302C137.398 174.68 137.794 175.64 138.49 176.312C139.21 176.96 140.086 177.284 141.118 177.284C142.654 177.284 143.722 176.636 144.322 175.34H150.874C150.538 176.66 149.926 177.848 149.038 178.904C148.174 179.96 147.082 180.788 145.762 181.388C144.442 181.988 142.966 182.288 141.334 182.288C139.366 182.288 137.614 181.868 136.078 181.028C134.542 180.188 133.342 178.988 132.478 177.428C131.614 175.868 131.182 174.044 131.182 171.956C131.182 169.868 131.602 168.044 132.442 166.484C133.306 164.924 134.506 163.724 136.042 162.884C137.578 162.044 139.342 161.624 141.334 161.624C143.278 161.624 145.006 162.032 146.518 162.848C148.03 163.664 149.206 164.828 150.046 166.34C150.91 167.852 151.342 169.616 151.342 171.632ZM145.042 170.012C145.042 168.956 144.682 168.116 143.962 167.492C143.242 166.868 142.342 166.556 141.262 166.556C140.23 166.556 139.354 166.856 138.634 167.456C137.938 168.056 137.506 168.908 137.338 170.012H145.042ZM166.829 161.696C169.181 161.696 171.053 162.464 172.445 164C173.861 165.512 174.569 167.6 174.569 170.264V182H168.449V171.092C168.449 169.748 168.101 168.704 167.405 167.96C166.709 167.216 165.773 166.844 164.597 166.844C163.421 166.844 162.485 167.216 161.789 167.96C161.093 168.704 160.745 169.748 160.745 171.092V182H154.589V161.912H160.745V164.576C161.369 163.688 162.209 162.992 163.265 162.488C164.321 161.96 165.509 161.696 166.829 161.696ZM190.043 176.78V182H186.911C184.679 182 182.939 181.46 181.691 180.38C180.443 179.276 179.819 177.488 179.819 175.016V167.024H177.371V161.912H179.819V157.016H185.975V161.912H190.007V167.024H185.975V175.088C185.975 175.688 186.119 176.12 186.407 176.384C186.695 176.648 187.175 176.78 187.847 176.78H190.043ZM196.568 159.824C195.488 159.824 194.6 159.512 193.904 158.888C193.232 158.24 192.896 157.448 192.896 156.512C192.896 155.552 193.232 154.76 193.904 154.136C194.6 153.488 195.488 153.164 196.568 153.164C197.624 153.164 198.488 153.488 199.16 154.136C199.856 154.76 200.204 155.552 200.204 156.512C200.204 157.448 199.856 158.24 199.16 158.888C198.488 159.512 197.624 159.824 196.568 159.824ZM199.628 161.912V182H193.472V161.912H199.628ZM202.865 171.956C202.865 169.868 203.285 168.044 204.125 166.484C204.989 164.924 206.177 163.724 207.689 162.884C209.225 162.044 210.977 161.624 212.945 161.624C215.465 161.624 217.565 162.284 219.245 163.604C220.949 164.924 222.065 166.784 222.593 169.184H216.041C215.489 167.648 214.421 166.88 212.837 166.88C211.709 166.88 210.809 167.324 210.137 168.212C209.465 169.076 209.129 170.324 209.129 171.956C209.129 173.588 209.465 174.848 210.137 175.736C210.809 176.6 211.709 177.032 212.837 177.032C214.421 177.032 215.489 176.264 216.041 174.728H222.593C222.065 177.08 220.949 178.928 219.245 180.272C217.541 181.616 215.441 182.288 212.945 182.288C210.977 182.288 209.225 181.868 207.689 181.028C206.177 180.188 204.989 178.988 204.125 177.428C203.285 175.868 202.865 174.044 202.865 171.956ZM224.662 171.92C224.662 169.856 225.046 168.044 225.814 166.484C226.606 164.924 227.674 163.724 229.018 162.884C230.362 162.044 231.862 161.624 233.518 161.624C234.934 161.624 236.17 161.912 237.226 162.488C238.306 163.064 239.134 163.82 239.71 164.756V161.912H245.866V182H239.71V179.156C239.11 180.092 238.27 180.848 237.19 181.424C236.134 182 234.898 182.288 233.482 182.288C231.85 182.288 230.362 181.868 229.018 181.028C227.674 180.164 226.606 178.952 225.814 177.392C225.046 175.808 224.662 173.984 224.662 171.92ZM239.71 171.956C239.71 170.42 239.278 169.208 238.414 168.32C237.574 167.432 236.542 166.988 235.318 166.988C234.094 166.988 233.05 167.432 232.186 168.32C231.346 169.184 230.926 170.384 230.926 171.92C230.926 173.456 231.346 174.68 232.186 175.592C233.05 176.48 234.094 176.924 235.318 176.924C236.542 176.924 237.574 176.48 238.414 175.592C239.278 174.704 239.71 173.492 239.71 171.956ZM261.516 176.78V182H258.384C256.152 182 254.412 181.46 253.164 180.38C251.916 179.276 251.292 177.488 251.292 175.016V167.024H248.844V161.912H251.292V157.016H257.448V161.912H261.48V167.024H257.448V175.088C257.448 175.688 257.592 176.12 257.88 176.384C258.168 176.648 258.648 176.78 259.32 176.78H261.516ZM268.041 159.824C266.961 159.824 266.073 159.512 265.377 158.888C264.705 158.24 264.369 157.448 264.369 156.512C264.369 155.552 264.705 154.76 265.377 154.136C266.073 153.488 266.961 153.164 268.041 153.164C269.097 153.164 269.961 153.488 270.633 154.136C271.329 154.76 271.677 155.552 271.677 156.512C271.677 157.448 271.329 158.24 270.633 158.888C269.961 159.512 269.097 159.824 268.041 159.824ZM271.101 161.912V182H264.945V161.912H271.101ZM284.706 182.288C282.738 182.288 280.962 181.868 279.378 181.028C277.818 180.188 276.582 178.988 275.67 177.428C274.782 175.868 274.338 174.044 274.338 171.956C274.338 169.892 274.794 168.08 275.706 166.52C276.618 164.936 277.866 163.724 279.45 162.884C281.034 162.044 282.81 161.624 284.778 161.624C286.746 161.624 288.522 162.044 290.106 162.884C291.69 163.724 292.938 164.936 293.85 166.52C294.762 168.08 295.218 169.892 295.218 171.956C295.218 174.02 294.75 175.844 293.814 177.428C292.902 178.988 291.642 180.188 290.034 181.028C288.45 181.868 286.674 182.288 284.706 182.288ZM284.706 176.96C285.882 176.96 286.878 176.528 287.694 175.664C288.534 174.8 288.954 173.564 288.954 171.956C288.954 170.348 288.546 169.112 287.73 168.248C286.938 167.384 285.954 166.952 284.778 166.952C283.578 166.952 282.582 167.384 281.79 168.248C280.998 169.088 280.602 170.324 280.602 171.956C280.602 173.564 280.986 174.8 281.754 175.664C282.546 176.528 283.53 176.96 284.706 176.96ZM310.724 161.696C313.076 161.696 314.948 162.464 316.34 164C317.756 165.512 318.464 167.6 318.464 170.264V182H312.344V171.092C312.344 169.748 311.996 168.704 311.3 167.96C310.604 167.216 309.668 166.844 308.492 166.844C307.316 166.844 306.38 167.216 305.684 167.96C304.988 168.704 304.64 169.748 304.64 171.092V182H298.484V161.912H304.64V164.576C305.264 163.688 306.104 162.992 307.16 162.488C308.216 161.96 309.404 161.696 310.724 161.696Z" fill="black"/>
<path d="M1148.26 129.728V144.848C1148.26 146.36 1148.63 147.524 1149.38 148.34C1150.12 149.156 1151.21 149.564 1152.65 149.564C1154.09 149.564 1155.2 149.156 1155.96 148.34C1156.73 147.524 1157.12 146.36 1157.12 144.848V129.728H1163.27V144.812C1163.27 147.068 1162.79 148.976 1161.83 150.536C1160.87 152.096 1159.58 153.272 1157.94 154.064C1156.34 154.856 1154.54 155.252 1152.54 155.252C1150.55 155.252 1148.76 154.868 1147.18 154.1C1145.62 153.308 1144.38 152.132 1143.47 150.572C1142.56 148.988 1142.1 147.068 1142.1 144.812V129.728H1148.26ZM1175.77 155.288C1174.02 155.288 1172.46 154.988 1171.09 154.388C1169.72 153.788 1168.64 152.972 1167.85 151.94C1167.06 150.884 1166.61 149.708 1166.52 148.412H1172.6C1172.67 149.108 1173 149.672 1173.57 150.104C1174.15 150.536 1174.86 150.752 1175.7 150.752C1176.46 150.752 1177.05 150.608 1177.46 150.32C1177.89 150.008 1178.11 149.612 1178.11 149.132C1178.11 148.556 1177.81 148.136 1177.21 147.872C1176.61 147.584 1175.64 147.272 1174.29 146.936C1172.85 146.6 1171.65 146.252 1170.69 145.892C1169.73 145.508 1168.9 144.92 1168.21 144.128C1167.51 143.312 1167.16 142.22 1167.16 140.852C1167.16 139.7 1167.48 138.656 1168.1 137.72C1168.75 136.76 1169.68 136.004 1170.91 135.452C1172.16 134.9 1173.63 134.624 1175.34 134.624C1177.86 134.624 1179.84 135.248 1181.28 136.496C1182.74 137.744 1183.58 139.4 1183.8 141.464H1178.11C1178.01 140.768 1177.7 140.216 1177.17 139.808C1176.67 139.4 1176 139.196 1175.16 139.196C1174.44 139.196 1173.88 139.34 1173.5 139.628C1173.12 139.892 1172.92 140.264 1172.92 140.744C1172.92 141.32 1173.22 141.752 1173.82 142.04C1174.45 142.328 1175.41 142.616 1176.7 142.904C1178.19 143.288 1179.4 143.672 1180.34 144.056C1181.28 144.416 1182.09 145.016 1182.79 145.856C1183.51 146.672 1183.88 147.776 1183.9 149.168C1183.9 150.344 1183.57 151.4 1182.9 152.336C1182.25 153.248 1181.3 153.968 1180.05 154.496C1178.83 155.024 1177.4 155.288 1175.77 155.288ZM1206.61 144.632C1206.61 145.208 1206.57 145.808 1206.5 146.432H1192.57C1192.66 147.68 1193.06 148.64 1193.75 149.312C1194.47 149.96 1195.35 150.284 1196.38 150.284C1197.92 150.284 1198.99 149.636 1199.59 148.34H1206.14C1205.8 149.66 1205.19 150.848 1204.3 151.904C1203.44 152.96 1202.35 153.788 1201.03 154.388C1199.71 154.988 1198.23 155.288 1196.6 155.288C1194.63 155.288 1192.88 154.868 1191.34 154.028C1189.81 153.188 1188.61 151.988 1187.74 150.428C1186.88 148.868 1186.45 147.044 1186.45 144.956C1186.45 142.868 1186.87 141.044 1187.71 139.484C1188.57 137.924 1189.77 136.724 1191.31 135.884C1192.84 135.044 1194.61 134.624 1196.6 134.624C1198.54 134.624 1200.27 135.032 1201.78 135.848C1203.29 136.664 1204.47 137.828 1205.31 139.34C1206.17 140.852 1206.61 142.616 1206.61 144.632ZM1200.31 143.012C1200.31 141.956 1199.95 141.116 1199.23 140.492C1198.51 139.868 1197.61 139.556 1196.53 139.556C1195.49 139.556 1194.62 139.856 1193.9 140.456C1193.2 141.056 1192.77 141.908 1192.6 143.012H1200.31ZM1216.01 138.26C1216.73 137.156 1217.63 136.292 1218.71 135.668C1219.79 135.02 1220.99 134.696 1222.31 134.696V141.212H1220.62C1219.08 141.212 1217.93 141.548 1217.16 142.22C1216.39 142.868 1216.01 144.02 1216.01 145.676V155H1209.85V134.912H1216.01V138.26ZM1086.37 183.728V209H1080.21V193.844L1074.56 209H1069.59L1063.91 193.808V209H1057.75V183.728H1065.02L1072.11 201.224L1079.13 183.728H1086.37ZM1089.57 198.92C1089.57 196.856 1089.96 195.044 1090.72 193.484C1091.52 191.924 1092.58 190.724 1093.93 189.884C1095.27 189.044 1096.77 188.624 1098.43 188.624C1099.84 188.624 1101.08 188.912 1102.14 189.488C1103.22 190.064 1104.04 190.82 1104.62 191.756V188.912H1110.78V209H1104.62V206.156C1104.02 207.092 1103.18 207.848 1102.1 208.424C1101.04 209 1099.81 209.288 1098.39 209.288C1096.76 209.288 1095.27 208.868 1093.93 208.028C1092.58 207.164 1091.52 205.952 1090.72 204.392C1089.96 202.808 1089.57 200.984 1089.57 198.92ZM1104.62 198.956C1104.62 197.42 1104.19 196.208 1103.32 195.32C1102.48 194.432 1101.45 193.988 1100.23 193.988C1099 193.988 1097.96 194.432 1097.1 195.32C1096.26 196.184 1095.84 197.384 1095.84 198.92C1095.84 200.456 1096.26 201.68 1097.1 202.592C1097.96 203.48 1099 203.924 1100.23 203.924C1101.45 203.924 1102.48 203.48 1103.32 202.592C1104.19 201.704 1104.62 200.492 1104.62 198.956ZM1127.47 188.696C1129.82 188.696 1131.69 189.464 1133.09 191C1134.5 192.512 1135.21 194.6 1135.21 197.264V209H1129.09V198.092C1129.09 196.748 1128.74 195.704 1128.05 194.96C1127.35 194.216 1126.41 193.844 1125.24 193.844C1124.06 193.844 1123.13 194.216 1122.43 194.96C1121.73 195.704 1121.39 196.748 1121.39 198.092V209H1115.23V188.912H1121.39V191.576C1122.01 190.688 1122.85 189.992 1123.91 189.488C1124.96 188.96 1126.15 188.696 1127.47 188.696ZM1138.26 198.92C1138.26 196.856 1138.65 195.044 1139.42 193.484C1140.21 191.924 1141.28 190.724 1142.62 189.884C1143.96 189.044 1145.46 188.624 1147.12 188.624C1148.54 188.624 1149.77 188.912 1150.83 189.488C1151.91 190.064 1152.74 190.82 1153.31 191.756V188.912H1159.47V209H1153.31V206.156C1152.71 207.092 1151.87 207.848 1150.79 208.424C1149.74 209 1148.5 209.288 1147.08 209.288C1145.45 209.288 1143.96 208.868 1142.62 208.028C1141.28 207.164 1140.21 205.952 1139.42 204.392C1138.65 202.808 1138.26 200.984 1138.26 198.92ZM1153.31 198.956C1153.31 197.42 1152.88 196.208 1152.02 195.32C1151.18 194.432 1150.14 193.988 1148.92 193.988C1147.7 193.988 1146.65 194.432 1145.79 195.32C1144.95 196.184 1144.53 197.384 1144.53 198.92C1144.53 200.456 1144.95 201.68 1145.79 202.592C1146.65 203.48 1147.7 203.924 1148.92 203.924C1150.14 203.924 1151.18 203.48 1152.02 202.592C1152.88 201.704 1153.31 200.492 1153.31 198.956ZM1171.55 188.624C1172.97 188.624 1174.21 188.912 1175.26 189.488C1176.34 190.064 1177.17 190.82 1177.75 191.756V188.912H1183.9V208.964C1183.9 210.812 1183.53 212.48 1182.79 213.968C1182.07 215.48 1180.95 216.68 1179.44 217.568C1177.95 218.456 1176.09 218.9 1173.86 218.9C1170.88 218.9 1168.47 218.192 1166.62 216.776C1164.77 215.384 1163.72 213.488 1163.45 211.088H1169.54C1169.73 211.856 1170.19 212.456 1170.91 212.888C1171.63 213.344 1172.51 213.572 1173.57 213.572C1174.84 213.572 1175.85 213.2 1176.59 212.456C1177.36 211.736 1177.75 210.572 1177.75 208.964V206.12C1177.15 207.056 1176.32 207.824 1175.26 208.424C1174.21 209 1172.97 209.288 1171.55 209.288C1169.9 209.288 1168.4 208.868 1167.05 208.028C1165.71 207.164 1164.64 205.952 1163.85 204.392C1163.08 202.808 1162.7 200.984 1162.7 198.92C1162.7 196.856 1163.08 195.044 1163.85 193.484C1164.64 191.924 1165.71 190.724 1167.05 189.884C1168.4 189.044 1169.9 188.624 1171.55 188.624ZM1177.75 198.956C1177.75 197.42 1177.31 196.208 1176.45 195.32C1175.61 194.432 1174.58 193.988 1173.35 193.988C1172.13 193.988 1171.09 194.432 1170.22 195.32C1169.38 196.184 1168.96 197.384 1168.96 198.92C1168.96 200.456 1169.38 201.68 1170.22 202.592C1171.09 203.48 1172.13 203.924 1173.35 203.924C1174.58 203.924 1175.61 203.48 1176.45 202.592C1177.31 201.704 1177.75 200.492 1177.75 198.956ZM1207.29 198.632C1207.29 199.208 1207.26 199.808 1207.18 200.432H1193.25C1193.35 201.68 1193.74 202.64 1194.44 203.312C1195.16 203.96 1196.04 204.284 1197.07 204.284C1198.6 204.284 1199.67 203.636 1200.27 202.34H1206.82C1206.49 203.66 1205.88 204.848 1204.99 205.904C1204.12 206.96 1203.03 207.788 1201.71 208.388C1200.39 208.988 1198.92 209.288 1197.28 209.288C1195.32 209.288 1193.56 208.868 1192.03 208.028C1190.49 207.188 1189.29 205.988 1188.43 204.428C1187.56 202.868 1187.13 201.044 1187.13 198.956C1187.13 196.868 1187.55 195.044 1188.39 193.484C1189.26 191.924 1190.46 190.724 1191.99 189.884C1193.53 189.044 1195.29 188.624 1197.28 188.624C1199.23 188.624 1200.96 189.032 1202.47 189.848C1203.98 190.664 1205.16 191.828 1206 193.34C1206.86 194.852 1207.29 196.616 1207.29 198.632ZM1200.99 197.012C1200.99 195.956 1200.63 195.116 1199.91 194.492C1199.19 193.868 1198.29 193.556 1197.21 193.556C1196.18 193.556 1195.3 193.856 1194.58 194.456C1193.89 195.056 1193.46 195.908 1193.29 197.012H1200.99ZM1236.17 188.696C1238.67 188.696 1240.65 189.452 1242.11 190.964C1243.6 192.476 1244.34 194.576 1244.34 197.264V209H1238.22V198.092C1238.22 196.796 1237.87 195.8 1237.18 195.104C1236.51 194.384 1235.57 194.024 1234.37 194.024C1233.17 194.024 1232.22 194.384 1231.53 195.104C1230.85 195.8 1230.52 196.796 1230.52 198.092V209H1224.4V198.092C1224.4 196.796 1224.05 195.8 1223.35 195.104C1222.68 194.384 1221.75 194.024 1220.55 194.024C1219.35 194.024 1218.4 194.384 1217.7 195.104C1217.03 195.8 1216.69 196.796 1216.69 198.092V209H1210.54V188.912H1216.69V191.432C1217.32 190.592 1218.13 189.932 1219.14 189.452C1220.15 188.948 1221.29 188.696 1222.56 188.696C1224.07 188.696 1225.42 189.02 1226.59 189.668C1227.79 190.316 1228.73 191.24 1229.4 192.44C1230.1 191.336 1231.05 190.436 1232.25 189.74C1233.45 189.044 1234.75 188.696 1236.17 188.696ZM1267.58 198.632C1267.58 199.208 1267.55 199.808 1267.48 200.432H1253.54C1253.64 201.68 1254.04 202.64 1254.73 203.312C1255.45 203.96 1256.33 204.284 1257.36 204.284C1258.9 204.284 1259.96 203.636 1260.56 202.34H1267.12C1266.78 203.66 1266.17 204.848 1265.28 205.904C1264.42 206.96 1263.32 207.788 1262 208.388C1260.68 208.988 1259.21 209.288 1257.58 209.288C1255.61 209.288 1253.86 208.868 1252.32 208.028C1250.78 207.188 1249.58 205.988 1248.72 204.428C1247.86 202.868 1247.42 201.044 1247.42 198.956C1247.42 196.868 1247.84 195.044 1248.68 193.484C1249.55 191.924 1250.75 190.724 1252.28 189.884C1253.82 189.044 1255.58 188.624 1257.58 188.624C1259.52 188.624 1261.25 189.032 1262.76 189.848C1264.27 190.664 1265.45 191.828 1266.29 193.34C1267.15 194.852 1267.58 196.616 1267.58 198.632ZM1261.28 197.012C1261.28 195.956 1260.92 195.116 1260.2 194.492C1259.48 193.868 1258.58 193.556 1257.5 193.556C1256.47 193.556 1255.6 193.856 1254.88 194.456C1254.18 195.056 1253.75 195.908 1253.58 197.012H1261.28ZM1283.07 188.696C1285.42 188.696 1287.3 189.464 1288.69 191C1290.1 192.512 1290.81 194.6 1290.81 197.264V209H1284.69V198.092C1284.69 196.748 1284.34 195.704 1283.65 194.96C1282.95 194.216 1282.02 193.844 1280.84 193.844C1279.66 193.844 1278.73 194.216 1278.03 194.96C1277.34 195.704 1276.99 196.748 1276.99 198.092V209H1270.83V188.912H1276.99V191.576C1277.61 190.688 1278.45 189.992 1279.51 189.488C1280.56 188.96 1281.75 188.696 1283.07 188.696ZM1306.29 203.78V209H1303.15C1300.92 209 1299.18 208.46 1297.93 207.38C1296.69 206.276 1296.06 204.488 1296.06 202.016V194.024H1293.61V188.912H1296.06V184.016H1302.22V188.912H1306.25V194.024H1302.22V202.088C1302.22 202.688 1302.36 203.12 1302.65 203.384C1302.94 203.648 1303.42 203.78 1304.09 203.78H1306.29Z" fill="black"/>
<path d="M1108.54 964.864C1108.54 966.328 1108.21 967.672 1107.54 968.896C1106.86 970.096 1105.83 971.068 1104.44 971.812C1103.05 972.556 1101.32 972.928 1099.26 972.928H1095.44V982H1089.28V956.728H1099.26C1101.27 956.728 1102.98 957.076 1104.37 957.772C1105.76 958.468 1106.8 959.428 1107.5 960.652C1108.2 961.876 1108.54 963.28 1108.54 964.864ZM1098.79 968.032C1099.96 968.032 1100.84 967.756 1101.42 967.204C1101.99 966.652 1102.28 965.872 1102.28 964.864C1102.28 963.856 1101.99 963.076 1101.42 962.524C1100.84 961.972 1099.96 961.696 1098.79 961.696H1095.44V968.032H1098.79ZM1110.53 971.92C1110.53 969.856 1110.91 968.044 1111.68 966.484C1112.47 964.924 1113.54 963.724 1114.88 962.884C1116.23 962.044 1117.73 961.624 1119.38 961.624C1120.8 961.624 1122.03 961.912 1123.09 962.488C1124.17 963.064 1125 963.82 1125.57 964.756V961.912H1131.73V982H1125.57V979.156C1124.97 980.092 1124.13 980.848 1123.05 981.424C1122 982 1120.76 982.288 1119.35 982.288C1117.71 982.288 1116.23 981.868 1114.88 981.028C1113.54 980.164 1112.47 978.952 1111.68 977.392C1110.91 975.808 1110.53 973.984 1110.53 971.92ZM1125.57 971.956C1125.57 970.42 1125.14 969.208 1124.28 968.32C1123.44 967.432 1122.41 966.988 1121.18 966.988C1119.96 966.988 1118.91 967.432 1118.05 968.32C1117.21 969.184 1116.79 970.384 1116.79 971.92C1116.79 973.456 1117.21 974.68 1118.05 975.592C1118.91 976.48 1119.96 976.924 1121.18 976.924C1122.41 976.924 1123.44 976.48 1124.28 975.592C1125.14 974.704 1125.57 973.492 1125.57 971.956ZM1156.7 961.912L1144.1 991.54H1137.48L1142.09 981.316L1133.92 961.912H1140.79L1145.44 974.476L1150.04 961.912H1156.7ZM1184.56 961.696C1187.06 961.696 1189.04 962.452 1190.5 963.964C1191.99 965.476 1192.73 967.576 1192.73 970.264V982H1186.61V971.092C1186.61 969.796 1186.27 968.8 1185.57 968.104C1184.9 967.384 1183.96 967.024 1182.76 967.024C1181.56 967.024 1180.61 967.384 1179.92 968.104C1179.25 968.8 1178.91 969.796 1178.91 971.092V982H1172.79V971.092C1172.79 969.796 1172.44 968.8 1171.75 968.104C1171.07 967.384 1170.14 967.024 1168.94 967.024C1167.74 967.024 1166.79 967.384 1166.09 968.104C1165.42 968.8 1165.09 969.796 1165.09 971.092V982H1158.93V961.912H1165.09V964.432C1165.71 963.592 1166.53 962.932 1167.53 962.452C1168.54 961.948 1169.68 961.696 1170.95 961.696C1172.47 961.696 1173.81 962.02 1174.99 962.668C1176.19 963.316 1177.12 964.24 1177.79 965.44C1178.49 964.336 1179.44 963.436 1180.64 962.74C1181.84 962.044 1183.15 961.696 1184.56 961.696ZM1215.97 971.632C1215.97 972.208 1215.94 972.808 1215.87 973.432H1201.93C1202.03 974.68 1202.43 975.64 1203.12 976.312C1203.84 976.96 1204.72 977.284 1205.75 977.284C1207.29 977.284 1208.35 976.636 1208.95 975.34H1215.51C1215.17 976.66 1214.56 977.848 1213.67 978.904C1212.81 979.96 1211.71 980.788 1210.39 981.388C1209.07 981.988 1207.6 982.288 1205.97 982.288C1204 982.288 1202.25 981.868 1200.71 981.028C1199.17 980.188 1197.97 978.988 1197.11 977.428C1196.25 975.868 1195.81 974.044 1195.81 971.956C1195.81 969.868 1196.23 968.044 1197.07 966.484C1197.94 964.924 1199.14 963.724 1200.67 962.884C1202.21 962.044 1203.97 961.624 1205.97 961.624C1207.91 961.624 1209.64 962.032 1211.15 962.848C1212.66 963.664 1213.84 964.828 1214.68 966.34C1215.54 967.852 1215.97 969.616 1215.97 971.632ZM1209.67 970.012C1209.67 968.956 1209.31 968.116 1208.59 967.492C1207.87 966.868 1206.97 966.556 1205.89 966.556C1204.86 966.556 1203.99 966.856 1203.27 967.456C1202.57 968.056 1202.14 968.908 1201.97 970.012H1209.67ZM1231.46 961.696C1233.81 961.696 1235.69 962.464 1237.08 964C1238.49 965.512 1239.2 967.6 1239.2 970.264V982H1233.08V971.092C1233.08 969.748 1232.73 968.704 1232.04 967.96C1231.34 967.216 1230.41 966.844 1229.23 966.844C1228.05 966.844 1227.12 967.216 1226.42 967.96C1225.73 968.704 1225.38 969.748 1225.38 971.092V982H1219.22V961.912H1225.38V964.576C1226 963.688 1226.84 962.992 1227.9 962.488C1228.95 961.96 1230.14 961.696 1231.46 961.696ZM1254.68 976.78V982H1251.54C1249.31 982 1247.57 981.46 1246.32 980.38C1245.08 979.276 1244.45 977.488 1244.45 975.016V967.024H1242V961.912H1244.45V957.016H1250.61V961.912H1254.64V967.024H1250.61V975.088C1250.61 975.688 1250.75 976.12 1251.04 976.384C1251.33 976.648 1251.81 976.78 1252.48 976.78H1254.68ZM1266.28 982.288C1264.53 982.288 1262.97 981.988 1261.6 981.388C1260.23 980.788 1259.15 979.972 1258.36 978.94C1257.57 977.884 1257.12 976.708 1257.03 975.412H1263.11C1263.18 976.108 1263.51 976.672 1264.08 977.104C1264.66 977.536 1265.37 977.752 1266.21 977.752C1266.97 977.752 1267.56 977.608 1267.97 977.32C1268.4 977.008 1268.62 976.612 1268.62 976.132C1268.62 975.556 1268.32 975.136 1267.72 974.872C1267.12 974.584 1266.15 974.272 1264.8 973.936C1263.36 973.6 1262.16 973.252 1261.2 972.892C1260.24 972.508 1259.41 971.92 1258.72 971.128C1258.02 970.312 1257.67 969.22 1257.67 967.852C1257.67 966.7 1257.99 965.656 1258.61 964.72C1259.26 963.76 1260.19 963.004 1261.42 962.452C1262.67 961.9 1264.14 961.624 1265.85 961.624C1268.37 961.624 1270.35 962.248 1271.79 963.496C1273.25 964.744 1274.09 966.4 1274.31 968.464H1268.62C1268.52 967.768 1268.21 967.216 1267.68 966.808C1267.18 966.4 1266.51 966.196 1265.67 966.196C1264.95 966.196 1264.39 966.34 1264.01 966.628C1263.63 966.892 1263.43 967.264 1263.43 967.744C1263.43 968.32 1263.73 968.752 1264.33 969.04C1264.96 969.328 1265.92 969.616 1267.21 969.904C1268.7 970.288 1269.91 970.672 1270.85 971.056C1271.79 971.416 1272.6 972.016 1273.3 972.856C1274.02 973.672 1274.39 974.776 1274.41 976.168C1274.41 977.344 1274.08 978.4 1273.41 979.336C1272.76 980.248 1271.81 980.968 1270.56 981.496C1269.34 982.024 1267.91 982.288 1266.28 982.288Z" fill="black"/>
<path d="M119.364 977.536H109.932L108.42 982H101.976L111.12 956.728H118.248L127.392 982H120.876L119.364 977.536ZM117.78 972.784L114.648 963.532L111.552 972.784H117.78ZM128.951 971.956C128.951 969.868 129.371 968.044 130.211 966.484C131.075 964.924 132.263 963.724 133.775 962.884C135.311 962.044 137.063 961.624 139.031 961.624C141.551 961.624 143.651 962.284 145.331 963.604C147.035 964.924 148.151 966.784 148.679 969.184H142.127C141.575 967.648 140.507 966.88 138.923 966.88C137.795 966.88 136.895 967.324 136.223 968.212C135.551 969.076 135.215 970.324 135.215 971.956C135.215 973.588 135.551 974.848 136.223 975.736C136.895 976.6 137.795 977.032 138.923 977.032C140.507 977.032 141.575 976.264 142.127 974.728H148.679C148.151 977.08 147.035 978.928 145.331 980.272C143.627 981.616 141.527 982.288 139.031 982.288C137.063 982.288 135.311 981.868 133.775 981.028C132.263 980.188 131.075 978.988 130.211 977.428C129.371 975.868 128.951 974.044 128.951 971.956ZM150.748 971.956C150.748 969.868 151.168 968.044 152.008 966.484C152.872 964.924 154.06 963.724 155.572 962.884C157.108 962.044 158.86 961.624 160.828 961.624C163.348 961.624 165.448 962.284 167.128 963.604C168.832 964.924 169.948 966.784 170.476 969.184H163.924C163.372 967.648 162.304 966.88 160.72 966.88C159.592 966.88 158.692 967.324 158.02 968.212C157.348 969.076 157.012 970.324 157.012 971.956C157.012 973.588 157.348 974.848 158.02 975.736C158.692 976.6 159.592 977.032 160.72 977.032C162.304 977.032 163.372 976.264 163.924 974.728H170.476C169.948 977.08 168.832 978.928 167.128 980.272C165.424 981.616 163.324 982.288 160.828 982.288C158.86 982.288 157.108 981.868 155.572 981.028C154.06 980.188 152.872 978.988 152.008 977.428C151.168 975.868 150.748 974.044 150.748 971.956ZM182.913 982.288C180.945 982.288 179.169 981.868 177.585 981.028C176.025 980.188 174.789 978.988 173.877 977.428C172.989 975.868 172.545 974.044 172.545 971.956C172.545 969.892 173.001 968.08 173.913 966.52C174.825 964.936 176.073 963.724 177.657 962.884C179.241 962.044 181.017 961.624 182.985 961.624C184.953 961.624 186.729 962.044 188.313 962.884C189.897 963.724 191.145 964.936 192.057 966.52C192.969 968.08 193.425 969.892 193.425 971.956C193.425 974.02 192.957 975.844 192.021 977.428C191.109 978.988 189.849 980.188 188.241 981.028C186.657 981.868 184.881 982.288 182.913 982.288ZM182.913 976.96C184.089 976.96 185.085 976.528 185.901 975.664C186.741 974.8 187.161 973.564 187.161 971.956C187.161 970.348 186.753 969.112 185.937 968.248C185.145 967.384 184.161 966.952 182.985 966.952C181.785 966.952 180.789 967.384 179.997 968.248C179.205 969.088 178.809 970.324 178.809 971.956C178.809 973.564 179.193 974.8 179.961 975.664C180.753 976.528 181.737 976.96 182.913 976.96ZM216.527 961.912V982H210.371V979.264C209.747 980.152 208.895 980.872 207.815 981.424C206.759 981.952 205.583 982.216 204.287 982.216C202.751 982.216 201.395 981.88 200.219 981.208C199.043 980.512 198.131 979.516 197.483 978.22C196.835 976.924 196.511 975.4 196.511 973.648V961.912H202.631V972.82C202.631 974.164 202.979 975.208 203.675 975.952C204.371 976.696 205.307 977.068 206.483 977.068C207.683 977.068 208.631 976.696 209.327 975.952C210.023 975.208 210.371 974.164 210.371 972.82V961.912H216.527ZM233.189 961.696C235.541 961.696 237.413 962.464 238.805 964C240.221 965.512 240.929 967.6 240.929 970.264V982H234.809V971.092C234.809 969.748 234.461 968.704 233.765 967.96C233.069 967.216 232.133 966.844 230.957 966.844C229.781 966.844 228.845 967.216 228.149 967.96C227.453 968.704 227.105 969.748 227.105 971.092V982H220.949V961.912H227.105V964.576C227.729 963.688 228.569 962.992 229.625 962.488C230.681 961.96 231.869 961.696 233.189 961.696ZM256.403 976.78V982H253.271C251.039 982 249.299 981.46 248.051 980.38C246.803 979.276 246.179 977.488 246.179 975.016V967.024H243.731V961.912H246.179V957.016H252.335V961.912H256.367V967.024H252.335V975.088C252.335 975.688 252.479 976.12 252.767 976.384C253.055 976.648 253.535 976.78 254.207 976.78H256.403Z" fill="black"/>
<defs>
<filter id="filter0_d_4_19" x="825.289" y="271.577" width="208.047" height="178.477" filterUnits="userSpaceOnUse" color-interpolation-filters="sRGB">
<feFlood flood-opacity="0" result="BackgroundImageFix"/>
<feColorMatrix in="SourceAlpha" type="matrix" values="0 0 0 0 0 0 0 0 0 0 0 0 0 0 0 0 0 0 127 0" result="hardAlpha"/>
<feOffset dy="4"/>
<feGaussianBlur stdDeviation="2"/>
<feComposite in2="hardAlpha" operator="out"/>
<feColorMatrix type="matrix" values="0 0 0 0 0 0 0 0 0 0 0 0 0 0 0 0 0 0 0.25 0"/>
<feBlend mode="normal" in2="BackgroundImageFix" result="effect1_dropShadow_4_19"/>
<feBlend mode="normal" in="SourceGraphic" in2="effect1_dropShadow_4_19" result="shape"/>
</filter>
<filter id="filter1_d_4_19" x="825.289" y="703.577" width="208.047" height="178.477" filterUnits="userSpaceOnUse" color-interpolation-filters="sRGB">
<feFlood flood-opacity="0" result="BackgroundImageFix"/>
<feColorMatrix in="SourceAlpha" type="matrix" values="0 0 0 0 0 0 0 0 0 0 0 0 0 0 0 0 0 0 127 0" result="hardAlpha"/>
<feOffset dy="4"/>
<feGaussianBlur stdDeviation="2"/>
<feComposite in2="hardAlpha" operator="out"/>
<feColorMatrix type="matrix" values="0 0 0 0 0 0 0 0 0 0 0 0 0 0 0 0 0 0 0.25 0"/>
<feBlend mode="normal" in2="BackgroundImageFix" result="effect1_dropShadow_4_19"/>
<feBlend mode="normal" in="SourceGraphic" in2="effect1_dropShadow_4_19" result="shape"/>
</filter>
<filter id="filter2_d_4_19" x="322.289" y="271.577" width="208.047" height="178.477" filterUnits="userSpaceOnUse" color-interpolation-filters="sRGB">
<feFlood flood-opacity="0" result="BackgroundImageFix"/>
<feColorMatrix in="SourceAlpha" type="matrix" values="0 0 0 0 0 0 0 0 0 0 0 0 0 0 0 0 0 0 127 0" result="hardAlpha"/>
<feOffset dy="4"/>
<feGaussianBlur stdDeviation="2"/>
<feComposite in2="hardAlpha" operator="out"/>
<feColorMatrix type="matrix" values="0 0 0 0 0 0 0 0 0 0 0 0 0 0 0 0 0 0 0.25 0"/>
<feBlend mode="normal" in2="BackgroundImageFix" result="effect1_dropShadow_4_19"/>
<feBlend mode="normal" in="SourceGraphic" in2="effect1_dropShadow_4_19" result="shape"/>
</filter>
<filter id="filter3_d_4_19" x="322.289" y="703.577" width="208.047" height="178.477" filterUnits="userSpaceOnUse" color-interpolation-filters="sRGB">
<feFlood flood-opacity="0" result="BackgroundImageFix"/>
<feColorMatrix in="SourceAlpha" type="matrix" values="0 0 0 0 0 0 0 0 0 0 0 0 0 0 0 0 0 0 127 0" result="hardAlpha"/>
<feOffset dy="4"/>
<feGaussianBlur stdDeviation="2"/>
<feComposite in2="hardAlpha" operator="out"/>
<feColorMatrix type="matrix" values="0 0 0 0 0 0 0 0 0 0 0 0 0 0 0 0 0 0 0.25 0"/>
<feBlend mode="normal" in2="BackgroundImageFix" result="effect1_dropShadow_4_19"/>
<feBlend mode="normal" in="SourceGraphic" in2="effect1_dropShadow_4_19" result="shape"/>
</filter>
</defs>
</svg>
