<svg xmlns="http://www.w3.org/2000/svg" width="4247" height="3965" fill="none" xmlns:v="https://vecta.io/nano"><g fill="#ddd"><path fill-rule="evenodd" d="M1842.38 986.873c0-45.609-22.09-81.608-64.32-81.608-42.4 0-68.06 35.991-68.06 81.244 0 53.631 30.28 80.711 73.75 80.711 21.21 0 37.24-4.81 49.36-11.58V1020c-12.12 6.06-26.01 9.8-43.65 9.8-17.28 0-32.61-6.06-34.57-27.08H1842c0-2.32.36-11.577.36-15.855l.02.008zm-87.94-16.918c0-20.135 12.29-28.505 23.52-28.505 10.87 0 22.46 8.37 22.46 28.505h-45.98zm-113.12-64.674c-17.46 0-28.68 8.192-34.93 13.896l-2.32-11.044h-39.27v207.737l44.54-9.44.18-50.42c6.41 4.64 15.85 11.22 31.54 11.22 31.89 0 60.93-25.57 60.93-82.132-.18-51.669-29.57-79.825-60.76-79.825l.09.008zm-10.7 122.759c-10.51 0-16.74-3.74-21.02-8.37l-.18-66.107c4.63-5.169 11.04-8.726 21.2-8.726 16.21 0 27.44 18.174 27.44 41.509 0 23.874-11.05 41.694-27.44 41.694zm-127.1-133.268l44.72-9.61V849l-44.72 9.44v36.332zm0 13.539h44.72V1064.2h-44.72V908.311zm-47.93 13.175l-2.85-13.175h-38.49v155.909h44.54V958.554c10.51-13.717 28.32-11.222 33.85-9.261v-40.974c-5.7-2.139-26.54-6.061-37.06 13.175l.01-.008zm-89.08-51.925l-43.47 9.277-.18 142.712c0 26.36 19.78 45.78 46.14 45.78 14.61 0 25.3-2.67 31.18-5.89v-36.17c-5.7 2.33-33.85 10.51-33.85-15.85v-63.157h33.85v-37.952h-33.86l.19-38.75zm-120.44 83.917c0-6.952 5.71-9.61 15.15-9.61 15.41.328 30.53 4.228 44.17 11.393V913.48c-14.78-5.89-29.39-8.191-44.17-8.191-36.17 0-60.22 18.886-60.22 50.421 0 49.17 67.7 41.331 67.7 62.54 0 8.19-7.13 10.87-17.1 10.87-14.79 0-33.67-6.06-48.64-14.26v42.39c16.57 7.13 33.33 10.08 48.64 10.08 37.06 0 62.54-18.36 62.54-50.25-.18-53.085-68.07-43.646-68.07-63.602z"/><path d="M2826.7 719.762c0-49.495-61.95-96.402-156.92-125.49 21.92-96.859 12.18-173.919-30.74-198.591-9.9-5.787-21.46-8.528-34.1-8.528v33.961c7 0 12.64 1.371 17.35 3.96 20.7 11.879 29.68 57.11 22.68 115.286-1.67 14.316-4.41 29.393-7.76 44.775-29.83-7.31-62.4-12.945-96.65-16.6-20.55-28.175-41.85-53.76-63.31-76.147 49.61-46.145 96.19-71.426 127.85-71.426V387c-41.86 0-96.65 29.85-152.05 81.63-55.41-51.475-110.2-81.02-152.05-81.02v33.961c31.5 0 78.23 25.129 127.85 70.969-21.31 22.387-42.62 47.82-62.86 75.995-34.4 3.655-66.97 9.29-96.8 16.752-3.5-15.229-6.09-30.002-7.92-44.165-7.15-58.176 1.68-103.408 22.22-115.439 4.57-2.741 10.51-3.96 17.51-3.96v-33.961c-12.79 0-24.36 2.741-34.4 8.528-42.77 24.672-52.36 101.58-30.29 198.135-94.67 29.24-156.31 75.994-156.31 125.337 0 49.496 61.95 96.402 156.92 125.49-21.92 96.859-12.18 173.918 30.74 198.588 9.9 5.79 21.46 8.53 34.25 8.53 41.86 0 96.65-29.85 152.05-81.628 55.4 51.478 110.19 81.018 152.05 81.018 12.78 0 24.35-2.74 34.4-8.53 42.76-24.67 52.35-101.576 30.28-198.13 94.37-29.088 156.01-75.995 156.01-125.338zm-198.17-101.58c-5.63 19.646-12.63 39.901-20.54 60.156-6.24-12.183-12.79-24.367-19.94-36.55-7-12.184-14.46-24.063-21.92-35.637 21.61 3.198 42.47 7.158 62.4 12.031zm-69.7 162.193c-11.88 20.56-24.05 40.053-36.68 58.176-22.68 1.98-45.67 3.046-68.8 3.046-22.98 0-45.96-1.066-68.49-2.893-12.63-18.123-24.96-37.465-36.83-57.872-11.57-19.95-22.07-40.206-31.66-60.613 9.44-20.407 20.09-40.815 31.5-60.765 11.88-20.56 24.05-40.053 36.69-58.176 22.67-1.98 45.66-3.046 68.79-3.046 22.98 0 45.97 1.066 68.49 2.893 12.63 18.123 24.96 37.465 36.83 57.872 11.57 19.951 22.07 40.206 31.66 60.613-9.59 20.407-20.09 40.815-31.5 60.765zm49.16-19.798c8.22 20.407 15.22 40.815 21 60.613-19.94 4.873-40.94 8.985-62.71 12.183 7.46-11.726 14.92-23.757 21.92-36.093 7-12.184 13.55-24.52 19.79-36.703zm-154.34 162.497c-14.15-14.62-28.3-30.915-42.31-48.734 13.7.61 27.7 1.066 41.86 1.066 14.31 0 28.46-.304 42.31-1.066-13.7 17.819-27.85 34.114-41.86 48.734zm-113.23-89.701c-21.62-3.198-42.47-7.157-62.41-12.031 5.64-19.646 12.64-39.901 20.55-60.156 6.24 12.184 12.79 24.367 19.94 36.551s14.46 24.062 21.92 35.636zm112.47-316.923c14.16 14.62 28.31 30.916 42.32 48.734-13.7-.609-27.7-1.066-41.86-1.066-14.31 0-28.46.305-42.31 1.066a595.2 595.2 0 0 1 41.85-48.734zm-112.63 89.701c-7.45 11.727-14.91 23.758-21.91 36.094-7 12.183-13.55 24.367-19.79 36.55-8.22-20.407-15.22-40.814-21-60.613 19.94-4.721 40.94-8.833 62.7-12.031zm-137.74 190.672c-53.88-22.996-88.73-53.151-88.73-77.061s34.85-54.216 88.73-77.06c13.09-5.635 27.4-10.661 42.16-15.382 8.68 29.85 20.09 60.917 34.25 92.747-14.01 31.677-25.27 62.593-33.79 92.29-15.07-4.721-29.38-9.899-42.62-15.534zm81.89 217.627c-20.7-11.88-29.68-57.11-22.68-115.286 1.67-14.315 4.41-29.392 7.76-44.774 29.83 7.31 62.4 12.945 96.65 16.6 20.55 28.174 41.85 53.76 63.31 76.147-49.61 46.145-96.19 71.423-127.84 71.423-6.85-.15-12.64-1.52-17.2-4.11zm361.02-116.047c7.15 58.176-1.68 103.407-22.22 115.437-4.57 2.74-10.5 3.96-17.51 3.96-31.5 0-78.23-25.127-127.85-70.968 21.31-22.387 42.62-47.82 62.86-75.994 34.4-3.655 66.97-9.29 96.8-16.753 3.5 15.382 6.24 30.154 7.92 44.318zm58.6-101.58c-13.09 5.635-27.4 10.66-42.16 15.382-8.68-29.85-20.09-60.918-34.25-92.747 14-31.677 25.27-62.593 33.79-92.29 15.07 4.721 29.37 9.899 42.77 15.534 53.88 22.996 88.73 53.15 88.73 77.06-.15 23.91-35 54.217-88.88 77.061zm-250.83-7.462c38.41 0 69.55-31.161 69.55-69.599s-31.14-69.598-69.55-69.598c-38.42 0-69.56 31.16-69.56 69.598s31.14 69.599 69.56 69.599z"/><path opacity=".98" d="M1796.5 1213c-105.18 0-190.5 85.32-190.5 190.5s85.32 190.5 190.5 190.5 190.5-85.32 190.5-190.5-85.32-190.5-190.5-190.5zm-9.93 343.21v-119.5h-66.42l95.44-185.91v119.49h63.94l-92.96 185.92z"/><path d="M2139.13 1566.81v-328.99h198.44v39.4h-152.39v99.22h135.3v38.93h-135.3v151.44h-46.05zm311.58-31.81l6.77-.02 20.76-.46c8.23-.63 15.03-1.58 20.41-2.84v-73.59c-3.16-1.58-8.38-2.84-15.66-3.79-6.96-1.27-15.51-1.9-25.64-1.9-6.64 0-13.76.47-21.36 1.42-7.28.95-14.08 3.01-20.41 6.17-6.02 2.85-11.08 6.97-15.19 12.35-4.12 5.06-6.18 11.86-6.18 20.41 0 15.82 5.07 26.9 15.2 33.23 10.12 6.01 23.89 9.02 41.3 9.02zm-3.8-221.22c16.61 0 30.73 2.08 42.33 6.26l2.29.86c11.52 4.13 20.84 10.06 27.95 17.78l1.49 1.68c7.59 8.23 12.97 18.2 16.14 29.91 3.16 11.39 4.74 24.05 4.74 37.98v154.28l-8.54 1.48-7.6 1.37-5.16.71-17.62 2.14c-8.55.95-17.88 1.74-28.01 2.37a305.21 305.21 0 0 1-29.44 1.43c-13.92 0-26.74-1.43-38.45-4.28-11.71-2.84-21.84-7.27-30.38-13.29-8.55-6.33-15.19-14.56-19.94-24.68-4.75-10.13-7.12-22.32-7.12-36.56 0-13.61 2.69-25.32 8.07-35.13 5.7-9.81 13.29-17.72 22.79-23.73 9.49-6.02 20.57-10.45 33.23-13.29 12.66-2.85 25.95-4.28 39.88-4.28 4.43 0 9.01.32 13.76.95 4.75.32 9.18.95 13.29 1.9l4.22.63 5.54.95 6.46 1.32 1.82.42v-12.34c0-7.28-.79-14.4-2.37-21.36-1.58-7.28-4.43-13.61-8.54-18.99-4.12-5.7-9.82-10.13-17.09-13.29-6.97-3.48-16.15-5.22-27.54-5.22-13.34 0-25.23.93-35.65 2.79l-7.25 1.35c-8.56 1.67-15.15 3.45-19.76 5.35l-5.22-36.55c5.69-2.54 15.19-4.91 28.48-7.12 11.96-2.28 24.82-3.54 38.58-3.76l4.62-.04zM2672.16 1535c18.04 0 31.33-2.37 39.87-7.12 8.87-4.75 13.3-12.34 13.3-22.79 0-10.76-4.28-19.3-12.82-25.63-8.55-6.33-22.63-13.45-42.25-21.37l-27.53-11.39c-8.55-4.11-15.99-8.86-22.32-14.24s-11.39-11.87-15.19-19.47c-3.8-7.59-5.69-16.93-5.69-28 0-21.84 8.07-39.09 24.21-51.75 16.14-12.97 38.13-19.46 65.98-19.46a154.25 154.25 0 0 1 20.89 1.42c6.96.63 13.45 1.58 19.46 2.85 5.16.81 9.73 1.74 13.72 2.79l5.3 1.45c3.15.89 5.67 1.69 7.57 2.41l-8.07 37.97c-4.75-2.53-12.19-5.06-22.31-7.59-10.13-2.85-22.32-4.27-36.56-4.27-12.34 0-23.1 2.53-32.28 7.59-9.18 4.75-13.77 12.34-13.77 22.79 0 5.38.95 10.13 2.85 14.24 2.22 4.11 5.38 7.91 9.5 11.39 4.43 3.17 9.81 6.17 16.14 9.02s13.92 5.86 22.78 9.02c11.71 4.43 22.16 8.86 31.34 13.3 9.17 4.11 16.93 9.01 23.26 14.71 6.64 5.7 11.71 12.66 15.19 20.89 3.48 7.91 5.22 17.72 5.22 29.43 0 22.79-8.54 40.04-25.63 51.75-16.78 11.71-40.83 17.56-72.16 17.56-20.75 0-37.21-1.71-49.39-5.14l-9.94-2.88c-8.01-2.38-13.71-4.29-17.1-5.75l8.07-37.97 6.06 2.21 18.15 6.33c10.42 3.58 24.07 5.47 40.95 5.68l3.2.02zm195.26-215.05h93.52v37.03h-93.52v113.93c0 12.34.95 22.63 2.85 30.86 1.89 7.91 4.74 14.24 8.54 18.99 3.8 4.43 8.55 7.59 14.24 9.49 5.7 1.9 12.35 2.85 19.94 2.85 13.29 0 23.9-1.42 31.81-4.27l17.09-6.65 8.54 36.55c-4.43 2.22-12.18 4.91-23.26 8.08-11.08 3.48-23.74 5.22-37.98 5.22-16.77 0-30.7-2.06-41.77-6.17-10.76-4.43-19.47-10.92-26.11-19.47-6.65-8.54-11.4-18.99-14.24-31.33-2.54-12.66-3.8-27.22-3.8-43.67v-220.28l44.15-7.59v76.43zm372.34 246.86l-15.19-41.78-14.71-42.25h-149.07l-29.9 84.03h-47.95l10.66-29.19 17.71-47.89 13.84-36.95 25.67-66.84 28.32-67.9 3.49-8.06a1845.34 1845.34 0 0 1 32.76-72.16h42.25c9.49 19.78 18.66 39.78 27.49 60l5.26 12.16c10.45 24.05 20.89 49.37 31.33 75.96l29.44 75.62 10.55 28.17 28.37 77.08h-50.32zm-43.2-122.01l-30.38-79.75c-9.81-25.95-20.09-50.8-30.86-74.53-11.07 23.73-21.67 48.58-31.8 74.53l-29.43 79.75h122.47zm225.08-210.3c44.99 0 79.77 8.4 104.36 25.2l1.97 1.38c25.01 17.41 37.51 43.52 37.51 78.33 0 18.99-3.48 35.29-10.45 48.9-6.64 13.29-16.45 24.21-29.43 32.76-12.66 8.22-28.17 14.24-46.52 18.03-18.36 3.8-39.09 5.7-62.19 5.7h-36.56v122.01h-46.04v-324.24c12.97-3.17 27.37-5.22 43.2-6.17 14.52-1.14 27.9-1.77 40.11-1.88l4.04-.02zm3.79 40.35l-8.95.04c-15.3.12-27.35.58-36.15 1.38v129.13h34.66c15.82 0 30.06-.95 42.72-2.85 12.66-2.21 23.27-5.7 31.81-10.44 8.86-5.07 15.67-11.87 20.41-20.42 4.75-8.54 7.12-19.46 7.12-32.75 0-11.87-2.22-21.79-6.67-29.76l-.92-1.57c-4.75-8.23-11.39-14.72-19.94-19.47-8.23-5.06-17.88-8.54-28.96-10.44-11.07-1.9-22.78-2.85-35.13-2.85zm197.21-37.03h46.05v328.99h-46.05v-328.99zm-354.05 596.75h3.88c.82-1.77.82-4.35 0-7.29-.83-4.35-2.12-7.29-4.71-6.94-2.58.47-2.58 3.88-1.76 8.23.35 2.59 1.29 4.7 2.59 6zm-22.81 3.88c1.76.82 3.05 1.29 3.41.82.47-.47 0-.82-.47-1.76-.83-1.77-3.06-3.06-4.71-3.88-4.35-1.77-9.05-1.3-12.93 1.76-1.29.82-2.58 2.12-2.11 3.06 0 .47.47.47.82.47.82 0 4.7-1.77 9.05-2.12 2.59-.12 5.17.82 6.94 1.65zm-3.88 2.11c-2.59.47-3.88 1.3-4.7 2.12-.83.82-1.3 1.29-1.3 1.76v.47h.47c.47 0 1.77-.47 1.77-.47 3.41-1.29 5.64-1.29 7.76-.82 1.29 0 1.76.47 2.11 0v-.82c-.12-1.3-2.7-2.59-6.11-2.24z"/><path d="M3243.19 1843.62c.82-1.76.82-5.64 0-8.58-.82-4.35-2.11-6.94-5.17-6.94-2.59.47-2.59 3.88-1.76 8.58.47 3.06 1.76 4.71 2.11 6 2.24 3.53 3.53 2.59 4.82.94zm17.64 4.7c1.76.83 3.41.47 4.35-.82.47-1.29-.47-3.06-2.12-3.88-1.76-.82-3.41-.47-4.35.82-.94 1.3.35 3.06 2.12 3.88zm10.69-9.4c-1.29 0-2.58 1.29-2.58 3.41 0 1.76.82 3.41 2.58 3.41 1.3 0 2.59-1.3 2.59-3.41-.35-1.77-1.29-3.41-2.59-3.41zm-91.11 33.5c-.47-.47-.82-.47-1.29 0h-1.29c-.83 0-1.77-.47-2.12-1.29s-.47-2.12 0-3.88l.47-.82c1.29-2.59 3.06-6.47.82-10.35-1.76-3.06-3.88-4.7-6.93-5.17-3.06-.47-6 .82-7.76 3.06-3.06 3.4-3.41 7.75-3.06 9.4 0 .47.47.82.82.82.47 0 1.3-.47 1.77-1.76v-.47c0-.82.47-1.76 1.29-3.06.82-1.29 2.12-2.11 3.41-2.11 1.29-.47 3.06 0 4.35.82 2.12 1.29 3.06 3.88 2.12 6.47-1.3 1.29-1.77 3.41-1.77 5.64.47 3.88 3.06 5.64 5.17 6 2.12 0 3.88-1.3 3.88-2.12.47-.71.12-.71.12-1.18zm125.09-7.29c0-.47-.47-2.11-1.29-4.7l-1.77-3.88c3.06-4.35 3.06-8.58 2.59-10.7-.47-2.58-1.76-5.17-3.88-7.76-2.11-2.58-7.29-5.17-13.75-6.93l-3.41-.83s0-8.22-.47-11.63c0-2.59-.47-6.47-1.77-10.35-1.29-5.17-3.88-9.88-7.29-12.93 8.59-9.05 14.23-19.4 14.23-27.98 0-16.34-20.22-21.52-45.62-11.17l-5.17 2.11s-9.4-9.4-9.87-9.4c-27.87-24.92-116.86 74.42-88.53 98.52l5.99 5.17c-1.76 4.35-2.11 9.05-1.76 14.23.82 6.46 4.35 12.93 9.41 18.1 5.17 4.71 11.99 7.76 18.92 7.76 11.17 25.87 36.57 41.27 66.19 42.21 31.86.82 58.9-14.23 70.07-40.91.83-1.77 3.88-10.35 3.88-18.11.71-7.88-3.64-10.82-6.7-10.82zm-130.73 20.23c-.82 0-2.12.47-3.06 0-9.4-.47-20.22-9.06-21.04-19.4-.83-11.17 4.7-19.75 15.05-21.99 1.29-.47 2.58-.47 4.35-.47 5.64.47 14.22 4.7 16.34 17.17 1.64 11.75-.83 22.92-11.64 24.69zm-10.7-48.21c-6.47 1.3-11.99 4.71-15.52 9.88-2.11-1.76-5.99-5.17-6.46-6.47-5.65-10.34 5.99-30.92 14.22-42.2 19.75-28.34 51.14-49.85 65.37-46.09 2.58.82 10.34 9.88 10.34 9.88s-14.58 8.23-27.98 19.4c-18.1 13.4-31.86 33.62-39.97 55.6zm101.46 43.86l.47-.47c0-.48-.47-.48-.47-.48s-15.05 2.12-29.27-3.05c1.76-5.17 5.64-3.41 11.99-2.59 11.17.82 21.51-.82 28.8-3.05 6.47-1.77 15.05-5.65 21.52-10.7 2.11 4.7 3.05 10.34 3.05 10.34s1.77-.47 3.06.47c1.29.83 2.11 2.59 1.76 6.94-1.29 8.58-5.17 15.05-10.7 21.51-3.41 3.88-8.23 7.29-13.28 9.88-2.59 1.29-5.64 2.59-8.58 3.41-23.28 7.29-46.44-.47-53.73-18.11-.47-1.29-1.29-2.58-1.29-4.35-3.06-11.64-.47-25.39 8.23-33.97.47-.47.82-1.3.82-2.12s-.47-1.29-.82-1.76c-3.06-4.35-13.29-11.64-11.17-25.87 1.29-10.34 10.34-17.16 18.45-16.81h2.12c3.41 0 6.94.82 9.41.82 4.7 0 9.4-.47 14.57-4.7 1.77-1.29 3.06-2.59 5.65-3.06.47 0 .82-.47 2.11 0 1.3 0 2.59.47 3.41 1.3 4.35 3.05 4.71 9.4 5.18 14.58 0 3.05.47 9.87.47 11.64.47 4.34 1.29 5.17 3.88 5.99 1.29.47 2.58.82 4.35 1.29 5.64 1.77 9.05 3.06 11.16 5.18 1.3 1.29 1.77 2.58 2.12 3.88.82 4.7-3.88 10.7-15.52 16.34-12.93 5.99-27.98 7.29-38.68 5.99l-3.88-.47c-8.58-1.29-13.28 9.88-8.23 17.17 3.41 4.7 12.47 8.23 21.05 8.23 20.69 0 36.56-8.58 42.2-16.34l.47-.83c.47-.47 0-.82-.47-.47-4.7 3.41-26.21 16.34-49.02 12.47 0 0-2.59-.48-5.17-1.3-2.12-.82-6-2.58-6.94-6.93 19.28 5.64 30.92 0 30.92 0zm-64.54-82.54c6.93-8.23 15.87-15.51 23.63-19.39.47 0 .47 0 .47.47-.47 1.29-1.77 3.41-2.12 5.17 0 .47.47.47.47.47 4.7-3.41 13.29-6.94 20.69-7.29.47 0 .47.47.47.47-1.29.82-2.11 2.12-3.41 3.41 0 0 0 .47.47.47 5.18 0 12.47 1.76 17.17 4.7.47 0 0 .83-.47.83-7.29-1.77-18.93-3.06-31.39 0-11.17 2.58-19.4 6.93-25.4 11.16-.58-.11-.94-.11-.58-.47zm615.57 19.29c-10.7 0-15.52 7.75-17.64 12.46-1.29 3.05-1.29 3.88-2.11 3.88-1.3 0-.47-2.59.47-5.18 1.29-5.64.47-9.87.47-9.87h-15.05v72.3h20.69v-22.81c2.59 4.35 6.94 8.59 13.76 8.59 15.04 0 22.33-12.47 22.33-29.63-.11-19.4-9.17-29.74-22.92-29.74zm-5.53 45.61c-4.7 0-8.23-6-8.23-14.22 0-8.23 3.41-14.23 8.23-14.23 5.65 0 8.23 5.17 8.23 14.23-.12 9.52-2.23 14.22-8.23 14.22zm-403.48-45.61c-9.05 0-13.29 7.28-15.52 11.63-1.29 2.59-1.29 4.71-2.59 4.71-1.29 0-.47-1.77-1.29-5.65-1.29-5.17-5.64-10.69-14.58-10.69-9.4 0-13.75 8.22-15.52 12.46-1.29 3.05-1.29 3.88-2.11 3.88-1.3 0-.47-2.59.47-5.18 1.29-5.64.47-9.87.47-9.87h-15.05v56.78h20.22v-28.33c0-5.64 2.12-12.46 6.47-12.46 4.7 0 5.64 3.41 5.64 9.87v30.92h20.69v-28.33c0-5.17 2.12-12.46 6.47-12.46 4.7 0 5.64 5.17 5.64 9.87v30.57h19.75v-33.51c-.23-14.69-5.41-24.21-19.16-24.21zm349.28 0c-9.05 0-13.28 7.28-15.51 11.63-1.3 2.59-1.3 4.71-2.59 4.71s-.47-2.12-1.29-5.65c-1.77-5.17-5.18-10.69-14.58-10.69-9.41 0-13.76 8.22-15.52 12.46-1.29 3.05-1.29 3.88-2.12 3.88-1.29 0-.47-2.59.47-5.18 1.3-5.64.47-9.87.47-9.87h-15.04v56.78h20.69v-28.33c0-5.64 2.11-12.46 6.46-12.46 4.71 0 5.65 3.41 5.65 9.87v30.92h20.69v-28.33c0-5.17 2.11-12.46 6.46-12.46 4.71 0 5.65 5.17 5.65 9.87v30.57h20.22v-33.51c-1.18-14.69-6.35-24.21-20.11-24.21zm-295.08 0c-15.88 0-27.16 5.64-27.16 5.64v17.16s12.46-7.29 22.81-7.29c8.23 0 9.05 4.35 8.58 8.23 0 0-2.12-.47-9.41-.47-16.81 0-25.39 7.76-25.39 19.75 0 11.64 9.4 16.35 17.63 16.35 11.64 0 16.82-7.76 18.46-11.64 1.29-2.59 1.29-4.35 2.12-4.35 1.29 0 .82 1.29.82 3.88 0 4.35 0 7.76.82 10.7h15.64v-27.99c-.47-17.51-6.47-29.97-24.92-29.97zm-5.18 44.79c-4.7 1.29-7.29-.47-7.29-3.41 0-4.35 4.71-6.47 11.17-6.47a35.43 35.43 0 0 1 5.65.47c-.12 1.65-4.35 8.11-9.53 9.41zm63.61-60.67h20.69v73.95h-20.69v-73.95zm43.49 45.62c0-5.17 4.71-9.88 13.29-9.88 9.41 0 17.16 4.71 18.93 5.65v-19.87s-6-5.64-20.69-5.64c-15.52 0-28.34 9.05-28.34 28.8s11.64 30.57 28.34 30.57c12.93 0 21.04-7.29 21.04-7.29v-18.93c-2.59 1.29-9.4 5.99-18.93 5.99-10.23.47-13.64-4.23-13.64-9.4zm73.95-29.74c-11.99 0-16.34 11.16-17.16 13.28s-1.29 3.06-2.12 3.06c-1.29 0-.47-2.59 0-3.88.83-3.06 3.06-10.35 3.06-19.75 0-6.47-.82-8.59-.82-8.59h-17.64v73.95h20.69v-28.33c0-4.7 1.77-12.46 6.94-12.46 4.35 0 5.64 3.05 5.64 9.4v31.39h20.69v-30.09c-.82-14.58-2.93-27.98-19.28-27.98zm25.4 1.29v56.78h20.69v-56.78s-3.41 2.11-10.35 2.11c-6.93-.35-10.34-2.11-10.34-2.11z"/><use href="#B"/><path d="M3493.14 1819.05v56.78h20.57v-56.78s-3.41 2.11-10.35 2.11c0-.35-10.22-2.11-10.22-2.11z"/><use href="#B" x="-170"/><path d="M3013.45 961.005h-48.47v-48.748h51.11c18.7 0 28.06 8.357 28.06 24.755 0 15.998-10.23 24.002-30.69 24.002m34.84-49.323c-6.64-5.943-15.93-8.914-27.88-8.914l-69.42.371v116.622h13.98l-.13-49.647h51.66c12.95 0 23.15-2.971 30.58-8.914 7.44-5.942 11.16-14.206 11.16-24.754s-3.32-18.812-9.96-24.755l.01-.009zm90.5 83.604c-1.33 3.817-3.61 7.225-6.63 9.915-6.27 6.13-15.83 9.17-28.79 9.17-11.61 0-20.43-2.97-26.74-8.92-6.31-5.94-9.33-13.897-9.33-23.86 0-5.2.81-9.796 2.44-13.817 1.54-3.893 3.96-7.376 7.07-10.177 6.43-5.849 15.29-8.793 26.56-8.793 25.07 0 37.45 10.929 37.45 32.777 0 5.2-.72 9.75-2.14 13.687m2.54-43.019c-8.53-7.772-21.15-11.662-37.86-11.662-15.78 0-27.99 3.974-36.6 11.913-7.77 7.187-11.65 16.88-11.65 29.081 0 12.118 4.01 21.9 12.03 29.34 4.43 4.01 9.59 6.92 15.48 8.71s12.81 2.79 20.74 2.79c16.71 0 29.29-3.85 38.07-11.54 7.77-7.01 11.65-16.746 11.65-29.198 0-12.535-3.92-22.312-11.79-29.341l-.07-.093zm105.85 46.399c0 15.783-14.07 23.543-42.19 23.543-8.6 0-15.84-.55-21.73-1.63s-10.66-2.91-14.34-5.42a21.51 21.51 0 0 1-6.76-7.43c-1.67-3-2.75-6.96-3.25-11.654l13-.121c0 6.175 2.3 10.725 6.87 13.645 4.93 3.51 13.63 5.27 26.12 5.27 19.66 0 29.49-4.92 29.49-14.78 0-5.76-3.29-9.724-9.88-11.888-1.34-.418-9.29-1.523-23.87-3.315s-23.64-3.407-27.23-4.828c-7.76-3.092-11.65-8.635-11.65-16.658-.14-3.615.77-7.194 2.61-10.306a18.78 18.78 0 0 1 7.79-7.234c3.44-1.578 7.71-2.813 12.85-3.695 5.15-.882 11.1-1.319 17.87-1.319 27.08 0 40.61 8.496 40.61 25.488h-12.44c0-11.941-9.52-17.92-28.55-17.92-9.69 0-16.9 1.207-21.66 3.714-4.77 2.507-7.15 6.128-7.15 11.142 0 4.68 3.21 8.06 9.63 10.149 3.77 1.086 12.4 2.34 25.93 3.761 12.11 1.086 20.41 2.627 24.92 4.642 8.6 3.343 13 9.007 13 17.029l.01-.185zm51.4 21.353l-5.32.75-3.32.25c-8.53 0-14.67-1.24-18.43-3.72s-5.57-6.79-5.57-13v-53.202h-15.51v-7.827h15.41l.12-25.145h11.94v25.145h20.78v7.957l-20.78-.13v51.782c0 3.86.92 6.52 3.06 7.99 2.14 1.46 5.7 2.2 10.96 2.2.74.09 1.57.05 2.5-.09.93-.15 2.3-.47 4.14-.95l.13 7.98-.11.01zm82.52-17.75a35.52 35.52 0 0 1-11.14 6.14c-4.18 1.42-8.97 2.13-14.39 2.13-24.96 0-37.42-10.21-37.42-30.917 0-9.592 3.19-17.104 9.56-22.527s15.38-8.133 26.97-8.133c11.69 0 20.55 2.729 26.61 8.198 6.05 5.47 9.08 12.786 9.08 21.969 0 10.01-3.09 17.643-9.27 23.16m21.2-59.056h-11.93l-.13 13.157c-5.26-5.339-9.01-8.728-11.27-10.14-6.69-3.667-15.32-5.506-25.93-5.506-15.53 0-27.39 3.547-35.56 10.641-7.76 6.5-11.65 15.943-11.65 28.292 0 6.091.99 11.542 2.95 16.342s4.83 8.87 8.59 12.2c8.2 6.84 19.77 10.27 34.74 10.27 17.98 0 30.64-4.92 38.26-14.86v13.63c0 8.68-2.74 15.41-8.21 20.16-5.47 4.76-14.47 7.15-26.99 7.15-11.78 0-20.17-1.62-25.07-4.86-3.76-2.49-6.35-6.82-7.77-12.97h-12.21c1.34 8.58 4.97 14.81 10.91 18.64 6.85 4.42 18.42 6.63 34.7 6.63 31.17 0 46.75-11.58 46.75-34.74v-74.129l-.18.093zm64.53 7.753c-3.31-.56-6.65-.852-10.01-.873-19.61 0-29.41 10.752-29.41 32.266v37.4h-11.8l-.13-76.537 11.94.121v13.649h.62c2-5.386 5.17-9.471 9.52-12.238 4.75-2.786 11.84-4.039 21.28-4.039h8.01v10.241l-.02.01zm11.11 25.683c1.5-8.7 4.88-15.432 10.14-20.205 3.43-2.758 7.3-4.828 11.64-6.221s9.23-2.071 14.65-2.071c10.61 0 19.26 2.907 25.98 8.729 6.73 5.821 10.17 12.405 10.17 19.777h-72.49m73.66-23.612a38.23 38.23 0 0 0-15.54-9.295c-6.19-2.015-13.41-3.018-21.68-3.018-15.46 0-27.45 3.594-35.98 10.771-8.52 7.178-12.78 16.965-12.78 29.342s4.08 22.283 12.27 29.453c8.85 8.02 21.34 12.03 37.47 12.03 6.43 0 12.38-.74 17.85-2.18s10.25-3.53 14.34-6.17c7.19-5.17 11.73-11.52 13.65-19.094h-13c-4.43 13.004-15.44 19.634-33.05 19.634-12.45 0-22.01-3.2-28.79-9.61-5.75-5.567-8.63-12.587-8.63-21.315h85.05c0-12.981-3.71-23.167-11.4-30.641l.22.093zm137.46 35.442c0 22.721-18.33 34.081-54.97 34.081-21.96 0-37.99-3.9-48.1-11.75-8.35-6.44-12.39-16.25-12.39-29.435h14.85c0 21.215 15.23 31.825 45.73 31.825 14.62 0 25.2-2.18 31.7-6.5 5.52-3.84 8.36-9.846 8.36-18.017 0-8.097-3.76-13.77-11.28-17.029-4.27-1.857-14.67-3.965-31.2-6.639-20.8-3.176-34.29-6.342-40.46-9.508-8.94-4.671-13.41-12.601-13.41-23.789 0-10.428 3.71-18.2 11.4-23.288 8.17-5.59 22.22-8.385 42.1-8.385 35.93 0 53.88 11.932 53.88 35.795h-14.97c0-17.874-13.34-26.806-39.92-26.806-13.37 0-23.16 1.801-29.34 5.385-5.85 3.844-8.78 9.471-8.78 16.918 0 7.772 3.76 13.241 11.28 16.416 4 1.839 15.79 4.383 35.34 7.651 18.39 2.758 30.78 5.971 37.14 9.657 8.78 4.513 13.16 12.322 13.16 23.436l-.12-.018zm119.85 11.611a57.42 57.42 0 0 1-18.68 9.94c-6.94 2.21-14.71 3.31-23.32 3.31-17.64 0-31.76-4.64-42.58-14.202-10.83-9.564-16.25-22.071-16.25-37.828 0-16.435 5.36-29.221 16.11-38.395 10.74-9.174 25.07-13.761 42.71-13.761 17.98 0 32.11 4.792 42.39 14.393 5.43 4.67 9.44 10.213 12.04 16.388s3.9 13.371 3.9 21.384c0 16.342-5.44 29.267-16.31 38.771m7.85 7.74c7.69-5.42 13.37-12.072 17.06-19.714 3.68-7.641 5.52-16.713 5.52-26.723 0-18.106-6.01-32.628-18.05-43.64-6.43-6.008-14.21-10.474-23.21-13.39-9.01-2.915-19.5-4.383-31.2-4.383-22.72 0-40.56 5.507-53.51 16.528s-19.43 25.953-19.43 44.811c0 18.357 6.53 33.167 19.5 44.431s30.92 16.9 53.56 16.9c8.85 0 16.57-.61 23.18-1.79 6.6-1.19 12.19-3.04 16.78-5.52l21.81 15.11 9.1-8.36-21.11-14.32v.06zm133.06 11.91H3849V903l13.86-.251v107.241h87.1l-.13 9.75-.01.02zm-859.13-487.407c-4.49-.717-16.01-3.598-25.55-6.204l-17.37-4.865 8.91-16.375 8.91-16.376-7.2-8.911c-10.17-12.597-23.3-40.216-23.39-49.114-.09-20.791 26.9-50.929 60.01-67.124 22.76-11.156 40.84-11.424 63.52-.804l17.09 8.001 4.95-7.103c2.69-3.873 4.95-8.998 4.95-11.25s2.25-4.228 4.95-4.228 4.94.717 4.94 1.528c0 1.983-19.88 52.182-21.14 53.442-.54.536-5.94-1.977-12.06-5.575-17.27-10.171-38.95-16.918-55.78-17.367-39.13-.992-52.72 37.254-25.1 70.715l9.72 11.793 26.54-21.508c29.78-24.021 33.2-24.564 56.42-8.543 26.08 17.99 26.53 45.341 1.34 73.951-22.32 25.461-45.25 32.483-84.66 25.91v.007zm66.77-27.438c12.95-10.164 12.05-28.972-1.99-43.907-17.63-18.714-23.11-17.903-54.16 8.007-30.86 25.729-31.04 24.744 5.85 36.53 24.38 7.913 39.68 7.645 50.3-.63zm250.65 99.145c-8.82-3.236-32.57-13.046-52.9-21.863-54.88-23.934-62.62-24.383-79-4.496-3.78 4.589-7.91 7.464-9.08 6.298-3.51-3.511 6.92-20.335 19.52-31.398 10.25-8.998 13.67-10.258 25.01-8.998 7.2.804 31.13 9.179 53.17 18.533 49.76 21.139 64.33 25.642 83.32 25.642 23.11 0 34.99-16.195 27.7-37.696-1.79-5.4-1.26-7.203 2.35-7.203 6.74 0 10.16 25.193 5.31 39.679-2.08 6.205-8.1 15.023-13.41 19.431-7.92 6.661-12.96 8.101-27.81 8.007-9.98-.087-25.36-2.693-34.18-5.936zm-128.21-76.92c-20.42-9.541-38.87-27.712-49.49-48.946-16.99-34.01-11.78-55.78 20.43-85.201 27.08-24.744 49.22-34.372 79-34.372 21.5 0 26.09 1.172 40.03 9.715 33.02 20.429 41.21 59.385 21.33 101.845-23.31 49.85-72.52 74.956-111.3 56.959zm68.38-23.665c15.29-7.558 25.82-42.467 21.5-71.439-5.4-35.713-53.71-60.102-89.16-44.979-36.44 15.564-36.98 57.039-1.17 94.374 25.01 26.184 46.52 33.019 68.83 22.044zm69.37 30.231c0-1.534 5.66-4.227 12.68-5.943l12.69-3.149 2.7-45.696c2.96-50.567.8-100.324-4.68-106.977-1.98-2.345-8.01-5.227-13.5-6.479-22.31-4.952-7.47-8.369 35.81-8.369s57.04 3.149 36.44 8.369c-17.72 4.408-17.82 4.676-17.82 76.832 0 40.034 1.44 70.179 3.51 74.045 2.88 5.401 7.2 6.567 23.76 6.567 34.18 0 45.97-8.094 55.24-38.058 2.79-8.992 9.98-7.371 7.46 1.715-1.17 4.221-3.05 17.086-4.22 28.785l-2.16 21.146h-73.96c-40.67 0-73.95-1.26-73.95-2.788zm167.97-2.164c0-2.693 2.61-5.394 6.93-7.464 5.76-2.7 9.53-8.369 23.21-35.089 21.68-42.279 55.87-114.891 59.11-125.779 2.52-8.275 3.06-8.724 12.41-9.802 5.4-.63 9.9-.992 9.99-.811s7.56 16.55 16.65 36.436c9 19.88 27.08 57.67 40.21 83.942 21.96 44.175 24.39 48.135 31.76 51.726 4.5 2.164 8.01 5.494 8.01 7.471 0 3.149-3.87 3.511-37.15 3.511-33.39 0-37.16-.362-37.16-3.598 0-2.158 2.88-4.496 7.46-6.03 4.23-1.347 7.47-3.866 7.47-5.756 0-1.802-4.41-13.675-9.81-26.359l-9.8-23.123h-74.32l-7.1 15.652c-13.32 29.334-13.59 36.262-1.18 39.586 6.21 1.708 7.92 3.062 7.2 5.849-.8 3.243-4.05 3.685-27.44 3.685-25.1.188-26.45 0-26.45-4.047zm121.82-72.785c1.26-2.245-26.72-63.338-29.33-63.968-1.89-.536-30.86 59.204-30.86 63.7 0 2.251 58.84 2.519 60.19.268zM1374 571.05V335l203.07 118.025v78.683l-135.38-78.683v157.366L1374 571.05z"/></g><path d="M1579.85 453.919L1785.69 335v237.838l-137.23 79.279-68.61-39.639 137.23-79.28v-79.279l-137.23 79.279v-79.279z" fill="#ccc"/><path d="M1579.85 610.391v79.28l136.3 79.279v-79.279l-136.3-79.28z" fill="#ddd"/><path d="M1716.15 768.95L1922 650.6V492.8l-68.62 39.45v78.9l-137.23 78.9v78.9zm137.23-315.6v-78.9L1922 335v78.9l-68.62 39.45z" fill="#ccc"/><g fill="#ddd"><path d="M1475.01 1946v-47.26c50.15 0 88.73-49.67 69.68-102.23-7.23-19.54-22.66-35.21-42.19-42.2-52.57-19.05-102.24 19.53-102.24 69.68H1353c0-79.81 77.16-142.02 160.83-115.98 36.65 11.34 65.58 40.51 76.92 76.92 26.04 83.91-35.93 161.07-115.74 161.07z"/><path fill-rule="evenodd" d="M1427.99 1851.72h47.02v47.02h-47.02v-47.02zm-36.17 83.19v-36.17h36.17v36.17h-36.17zm-30.38-66.31h30.38v30.14h-30.38v-30.14z"/><path d="M1787.02 1772.63c-13.99-9.64-31.35-14.7-51.6-14.7h-44.13v140.09h44.13c20.25 0 37.61-5.07 51.6-15.43 7.72-5.31 13.74-13.03 17.84-22.43s6.27-20.49 6.27-33.03c0-12.3-2.17-23.39-6.27-32.8-4.1-9.16-10.12-16.63-17.84-21.7zm-69.93 9.17h13.99c15.43 0 28.21 3.13 37.86 8.92 10.6 6.51 16.15 18.81 16.15 36.41 0 18.32-5.55 31.1-16.15 38.09-9.17 6.03-21.95 9.17-37.62 9.17h-13.98v-92.59h-.25zm124.9-25.56c-4.34 0-7.95 1.44-10.85 4.34-2.89 2.89-4.58 6.51-4.58 10.61 0 4.34 1.45 7.95 4.58 10.85 2.9 2.89 6.51 4.58 10.85 4.58s7.96-1.45 10.86-4.58c2.89-2.9 4.58-6.75 4.58-10.85 0-4.34-1.45-7.96-4.58-10.61-2.9-2.9-6.76-4.34-10.86-4.34h0zm-12.77 43.16h24.83v98.86h-24.83v-98.86zm115.25 8.2c-7.47-6.75-15.91-10.61-24.83-10.61-13.75 0-25.08 4.82-34 13.98s-13.26 21.22-13.26 35.45c0 13.98 4.34 25.8 13.26 35.44 8.92 9.16 20.25 13.99 34 13.99 9.64 0 17.84-2.66 24.59-7.96v2.41c0 8.2-2.17 14.47-6.51 19.05-4.34 4.34-10.37 6.51-17.84 6.51-11.58 0-18.57-4.58-27.49-16.4l-16.88 16.16.48.72c3.62 5.07 9.17 10.13 16.64 14.95 7.48 4.82 16.64 7.24 27.73 7.24 14.71 0 26.76-4.59 35.44-13.51 8.93-8.92 13.27-20.97 13.27-35.92v-89.7h-24.36v8.2h-.24zm-6.51 58.35c-4.34 4.82-9.88 7.23-17.12 7.23-7.23 0-12.78-2.41-16.88-7.23-4.34-4.82-6.51-11.33-6.51-19.29s2.17-14.71 6.51-19.53 9.89-7.48 16.88-7.48c7.24 0 12.78 2.41 17.12 7.48 4.34 4.82 6.51 11.57 6.51 19.53s-2.41 14.47-6.51 19.29zm52.08-66.55h24.84v98.86h-24.84v-98.86zm12.78-43.16c-4.34 0-7.95 1.44-10.85 4.34-2.89 2.89-4.58 6.51-4.58 10.61 0 4.34 1.45 7.95 4.58 10.85 2.9 2.89 6.51 4.58 10.85 4.58s7.96-1.45 10.85-4.58c2.9-2.9 4.58-6.75 4.58-10.85 0-4.34-1.44-7.96-4.58-10.61-2.89-2.9-6.75-4.34-10.85-4.34h0zm66.55 16.64h-24.35v26.76h-14.23v22.67h14.23v40.99c0 12.78 2.65 21.94 7.72 27.24 5.06 5.31 13.98 7.96 26.76 7.96 4.1 0 8.2-.24 12.06-.48h1.2v-22.67l-8.44.48c-6.03 0-9.88-.96-11.81-3.13s-2.9-6.51-2.9-13.02v-37.62h23.15v-22.66h-23.15v-26.52h-.24zm139.61-14.95h24.84v140.09h-24.84v-140.09zm275.84 104.88c-4.34 5.07-8.92 9.41-12.53 11.58-3.38 2.17-7.72 3.37-12.78 3.37-7.24 0-13.26-2.65-18.09-8.19-4.82-5.55-7.23-12.54-7.23-20.98s2.41-15.43 6.99-20.74c4.82-5.54 10.61-8.2 17.84-8.2 7.96 0 16.4 5.07 23.63 13.51l16.4-15.68c-10.61-13.98-24.35-20.49-40.75-20.49-13.74 0-25.56 5.06-35.2 14.71-9.65 9.64-14.47 22.18-14.47 36.89s4.82 27 14.47 36.89c9.64 9.89 21.46 14.71 35.2 14.71 18.09 0 32.55-7.72 42.2-21.94l-15.68-15.44zm102-49.67c-3.62-4.82-8.44-8.92-14.23-11.81-6.02-2.9-12.78-4.34-20.49-4.34-13.99 0-25.32 5.06-33.76 15.19-8.2 10.13-12.54 22.42-12.54 37.13 0 14.95 4.58 27.25 13.75 36.89 8.92 9.41 21.22 14.23 35.92 14.23 16.64 0 30.63-6.75 40.75-20.26l.49-.72-16.16-15.67c-1.45 1.93-3.62 3.86-5.55 5.79-2.41 2.41-4.82 4.09-7.23 5.3-3.62 1.93-7.96 2.65-12.54 2.65-6.99 0-12.54-1.93-16.88-6.03-4.1-3.61-6.51-8.68-6.99-14.95h65.83l.24-9.16c0-6.51-.97-12.54-2.65-18.32-1.69-5.55-4.34-10.85-7.96-15.92zm-54.25 23.39c1.2-4.82 3.37-8.68 6.51-11.81 3.37-3.38 7.71-5.07 13.02-5.07 6.03 0 10.61 1.69 13.74 5.07 2.9 3.13 4.58 6.99 5.07 11.57h-38.34v.24zm149.73-29.66c-7.47-6.51-17.84-9.64-30.86-9.64-8.2 0-15.91 1.93-22.91 5.3-6.51 3.38-12.78 8.68-16.88 15.92l.25.24 15.91 15.19c6.51-10.37 13.74-13.99 23.39-13.99 5.3 0 9.4 1.45 12.78 4.1 3.37 2.66 4.82 6.27 4.82 10.61v4.82c-6.27-1.92-12.3-2.89-18.32-2.89-12.3 0-22.43 2.89-29.9 8.68-7.48 5.79-11.34 14.23-11.34 24.6 0 9.16 3.14 16.87 9.65 22.42 6.51 5.31 14.47 8.2 23.87 8.2s18.32-3.86 26.28-10.37v8.2h24.36v-63.66c.48-11.81-3.38-21.22-11.1-27.73zm-44.12 53.53c2.89-1.93 6.75-2.89 11.81-2.89 6.03 0 12.3 1.2 18.81 3.62v9.64c-5.3 5.06-12.54 7.48-21.46 7.48-4.34 0-7.71-.97-9.89-2.9-2.17-1.93-3.37-4.1-3.37-7.23 0-3.14 1.45-5.79 4.1-7.72zm151.18-51.6c-6.99-7.71-16.64-11.57-28.93-11.57-9.89 0-17.85 2.89-23.87 8.44v-6.03h-24.36v98.86h24.84v-54.73c0-7.48 1.69-13.51 5.3-17.61 3.62-4.34 8.2-6.27 14.71-6.27 5.55 0 9.89 1.93 13.02 5.55 3.14 3.86 4.82 8.92 4.82 15.43v57.15h24.84v-57.15c0-13.5-3.38-24.35-10.37-32.07zm-611.48-1.93c-7.48-6.51-17.85-9.64-30.87-9.64-8.19 0-15.91 1.93-22.9 5.3-6.51 3.38-12.78 8.68-16.88 15.92l.24.24 15.91 15.19c6.51-10.37 13.75-13.99 23.39-13.99 5.31 0 9.41 1.45 12.78 4.1 3.38 2.66 4.82 6.27 4.82 10.61v4.82c-6.26-1.92-12.29-2.89-18.32-2.89-12.3 0-22.43 2.89-29.9 8.68s-11.33 14.23-11.33 24.6c0 9.16 3.13 16.87 9.64 22.42 6.51 5.31 14.47 8.2 23.87 8.2 9.41 0 18.33-3.86 26.29-10.37v8.2h24.35v-63.66c.24-11.81-3.62-21.22-11.09-27.73zm-44.13 53.53c2.9-1.93 6.75-2.89 11.82-2.89 6.02 0 12.29 1.2 18.8 3.62v9.64c-5.3 5.06-12.53 7.48-21.46 7.48-4.34 0-7.71-.97-9.88-2.9s-3.38-4.1-3.38-7.23c0-3.14 1.21-5.79 4.1-7.72zm190.25 39.79c-39.79 0-72.34-32.31-72.34-72.34s32.31-72.34 72.34-72.34c39.78 0 72.33 32.31 72.33 72.34s-32.55 72.34-72.33 72.34zm0-118.88c-25.8 0-46.78 20.98-46.78 46.78s20.98 46.78 46.78 46.78 46.77-20.98 46.77-46.78-20.97-46.78-46.77-46.78z"/><g fill-rule="evenodd"><path d="M2573.08 2074.37c1.8.07 3.58-.44 5.06-1.47a7.11 7.11 0 0 0 2.54-5.03 8.82 8.82 0 0 0-1.48-5.03c-1.21-1.57-3.08-2.5-5.07-2.52h-.42c-3.88.06-7.02 3.17-7.07 7.02-.1 1.8.42 3.57 1.48 5.03 1.3 1.32 3.1 2.04 4.96 2z"/><path d="M2567.99 2071.79c1.28 1.53 3.12 2.44 5.08 2.52 1.75.23 3.53-.13 5.07-1.01 1.51-1.31 2.43-3.2 2.54-5.23.01-1.82-.5-3.61-1.46-5.13-1.18-1.68-3.07-2.65-5.08-2.62h-.49c-3.69-.01-6.77 2.94-7.02 6.74.01 1.68.48 3.32 1.36 4.73zm-.39-4.73c.03-3.2 2.38-5.88 5.47-6.24h.97c1.67 0 3.23.83 4.2 2.22.93 1.31 1.41 2.9 1.37 4.52-.07 1.73-.85 3.34-2.15 4.43a7.57 7.57 0 0 1-4.39 1.31c-1.55.05-3.06-.53-4.2-1.61a8.46 8.46 0 0 1-1.27-4.63zm-12.06 36.24c3.96.2 7.38-2.83 7.78-6.88.06-1.91-.51-3.79-1.63-5.33-1.18-1.72-3.13-2.72-5.18-2.66-3.78.04-6.91 3.02-7.24 6.88a8.81 8.81 0 0 0 1.62 5.33 8.2 8.2 0 0 0 4.65 2.66z"/><path d="M2550.7 2102.67c1.28 1.7 3.01 2.8 4.88 3.08 3.89.42 7.34-3.12 7.74-7.95-.16-2.38-1.01-4.61-2.39-6.29-1.14-1.98-3-3.14-4.97-3.08-3.6.18-6.5 3.72-6.69 8.19-.02 2.15.48 4.25 1.43 6.05zm-1.05-6.05c.29-3.81 2.85-6.72 5.93-6.77h.47c1.65-.04 3.21.88 4.21 2.5.86 1.57 1.32 3.43 1.34 5.34-.35 4.02-3.15 7.03-6.41 6.88-1.62-.17-3.12-1.1-4.2-2.61-.93-1.54-1.4-3.43-1.34-5.34zm5.4 33.16a8.18 8.18 0 0 0-1.47-4.97c-1.2-1.55-3.06-2.47-5.03-2.49h-.53c-1.64-.03-3.24.53-4.5 1.56-1.59 1.17-2.52 3.01-2.52 4.97-.01 1.76.5 3.49 1.47 4.97 1.2 1.55 3.05 2.47 5.03 2.49 1.91.27 3.84-.3 5.29-1.55 1.45-1.26 2.28-3.07 2.26-4.98z"/><path d="M2547.44 2136.37h.88c1.68.02 3.31-.56 4.58-1.65a6.76 6.76 0 0 0 2.15-4.98 7.99 7.99 0 0 0-1.46-4.87 6.14 6.14 0 0 0-5.08-2.54h-.48a6.52 6.52 0 0 0-4.49 1.46c-1.64 1.17-2.59 3.07-2.54 5.07-.01 1.77.5 3.5 1.47 4.98a6.39 6.39 0 0 0 4.97 2.53zm-3.02-11.89a6.59 6.59 0 0 1 3.9-1.27l.1.49c1.68.01 3.26.8 4.29 2.14.84 1.31 1.28 2.83 1.27 4.39-.1 1.44-.73 2.8-1.76 3.8a6.12 6.12 0 0 1-4.39 1.37 5.16 5.16 0 0 1-4.19-2.15c-.93-1.27-1.41-2.81-1.37-4.39.01-1.71.8-3.32 2.15-4.38zm9.83 31.74a7.81 7.81 0 0 0-4.97 1.47c-1.56 1.2-2.47 3.06-2.49 5.03-.05 1.81.5 3.57 1.55 5.03 1.14 1.62 3.01 2.57 4.97 2.52 1.77.01 3.5-.5 4.98-1.47a6.41 6.41 0 0 0 2.48-5.03c.28-1.91-.29-3.84-1.54-5.29-1.26-1.45-3.08-2.28-4.98-2.26z"/><path d="M2548.61 2167.73c1.35 1.63 3.57 2.58 5.91 2.53 2.03.07 4.03-.44 5.68-1.46 1.93-1.16 3.08-3.05 3.07-5.07.26-1.91-.44-3.83-1.94-5.26-1.44-1.45-3.57-2.27-5.79-2.24-2.07-.1-4.12.41-5.8 1.46-1.84 1.2-2.93 3.08-2.95 5.07-.04 1.78.6 3.52 1.82 4.97zm1.93-9.26c1.43-.92 3.21-1.37 5-1.27 1.89.01 3.7.68 5 1.85 1.26 1.31 1.83 3 1.59 4.68-.02 1.68-.94 3.27-2.5 4.29-1.52.85-3.3 1.3-5.11 1.27-1.96.03-3.81-.73-5-2.05-1.09-1.31-1.64-2.88-1.6-4.48.01-1.71.99-3.31 2.62-4.29zm23.64 25.86c-3.88-.18-7.22 2.71-7.55 6.55a8.22 8.22 0 0 0 1.47 4.99 6.4 6.4 0 0 0 5.03 2.5 8.14 8.14 0 0 0 5.03-1.56 6.02 6.02 0 0 0 2.52-4.47c.01-1.77-.5-3.51-1.47-4.99a8.59 8.59 0 0 0-5.03-3.02z"/><path d="M2568.1 2195.84c1.21 1.59 3.1 2.53 5.11 2.53a8.99 8.99 0 0 0 4.91-1.46c1.65-1.21 2.61-3.14 2.56-5.17.02-1.74-.49-3.44-1.48-4.88-1.3-1.42-3.08-2.32-5.01-2.53-3.87-.17-7.2 2.7-7.56 6.53-.06 1.78.46 3.52 1.47 4.98zm-.49-4.98c.4-3.24 3.19-5.68 6.49-5.65h.09c1.72.33 3.25 1.26 4.33 2.63a7.05 7.05 0 0 1 1.37 4.39c-.14 1.54-.97 2.93-2.26 3.8a7.2 7.2 0 0 1-4.42 1.37 5.32 5.32 0 0 1-4.32-2.15 7.69 7.69 0 0 1-1.28-4.39zm34.62 13.31c-1.78-.09-3.54.43-4.99 1.47-1.56 1.2-2.49 3.05-2.5 5.03a7.99 7.99 0 0 0 1.56 5.02c1.13 1.64 3.01 2.59 4.99 2.52a8.27 8.27 0 0 0 5-1.47c1.56-1.2 2.48-3.05 2.49-5.03.05-1.8-.5-3.57-1.56-5.02-1.25-1.5-3.05-2.41-4.99-2.52z"/><path d="M2596.45 2215.51c1.41 1.68 3.65 2.67 6.04 2.68 1.99.14 3.99-.28 5.7-1.19 1.94-1.17 3.09-3.1 3.08-5.15.02-1.81-.62-3.58-1.83-5.05-1.48-1.53-3.62-2.46-5.93-2.57-2.02-.24-4.08.15-5.81 1.09-1.83 1.24-2.91 3.13-2.96 5.15-.05 1.79.55 3.55 1.71 5.04zm2.05-9.4c1.44-.94 3.22-1.39 5.01-1.29 1.96.07 3.78.86 5.02 2.18 1.08 1.29 1.65 2.86 1.6 4.46.01 1.71-.92 3.33-2.51 4.35-1.52.89-3.3 1.37-5.13 1.39-1.98.03-3.86-.78-5.02-2.18-1.1-1.32-1.66-2.92-1.59-4.55 0-1.74.98-3.36 2.62-4.36z"/><use href="#C"/><path d="M2659.21 2171.51c0 3.88 3.15 7.02 7.03 7.02 1.86 0 3.65-.74 4.97-2.05 1.32-1.32 2.06-3.11 2.06-4.97 0-3.88-3.15-7.03-7.03-7.03s-7.03 3.15-7.03 7.03zm1.28-2.42c.98-2.3 3.25-3.77 5.75-3.73 3.36.05 6.05 2.79 6.05 6.15a6.16 6.16 0 0 1-3.82 5.69c-2.31.94-4.96.4-6.71-1.38a6.15 6.15 0 0 1-1.27-6.73zm24.35-15.36c3.2 0 5.79-3.14 5.79-7.02s-2.59-7.03-5.79-7.03-5.79 3.15-5.79 7.03 2.59 7.02 5.79 7.02z"/><path d="M2676.57 2146.71c0 3.88 3.7 7.02 8.27 7.02s8.27-3.14 8.27-7.02-3.7-7.03-8.27-7.03-8.27 3.15-8.27 7.03zm1.27.06c-.05-3.33 3.08-6.06 7-6.11 1.91-.03 3.75.6 5.11 1.73 1.36 1.14 2.12 2.7 2.12 4.32 0 3.33-3.16 6.03-7.08 6.05-3.91.01-7.11-2.66-7.15-5.99zm8.24-24.45c3.88 0 7.03-3.15 7.03-7.03s-3.15-7.02-7.03-7.02-7.03 3.14-7.03 7.02 3.15 7.03 7.03 7.03z"/><path d="M2677.22 2118.03c1.31 2.63 4.37 4.33 7.73 4.29 2.16 0 4.24-.73 5.77-2.03s2.39-3.06 2.39-4.9c.04-2.86-1.96-5.46-5.05-6.57-3.1-1.11-6.69-.52-9.06 1.51-2.38 2.02-3.08 5.06-1.78 7.7zm1.06-5.03c1.14-2.26 3.78-3.71 6.67-3.67 3.9.05 7.02 2.75 7.02 6.06 0 2.46-1.75 4.68-4.43 5.61s-5.75.4-7.79-1.36c-2.03-1.75-2.61-4.38-1.47-6.64z"/><use href="#C" y="-84.32"/><path d="M2659.78 2089.94c1.11 2.63 3.71 4.31 6.56 4.27 3.84-.05 6.93-3.18 6.93-7.02 0-2.85-1.73-5.42-4.36-6.5a7.01 7.01 0 0 0-7.67 1.56c-2 2.03-2.58 5.07-1.46 7.69zm.88-5.02c.96-2.28 3.21-3.74 5.68-3.7 3.29 0 5.96 2.67 5.96 5.97a6.07 6.07 0 0 1-3.69 5.68c-2.28.96-4.91.45-6.66-1.3a6.06 6.06 0 0 1-1.29-6.65zm-57.25-27.09c4 .24 7.47-2.64 7.82-6.5.21-1.87-.4-3.75-1.67-5.18-1.28-1.43-3.11-2.28-5.07-2.36a7.29 7.29 0 0 0-4.67 1.47c-1.63 1.2-2.59 3.05-2.61 5.03-.02 1.78.51 3.53 1.52 5.02 1.13 1.44 2.82 2.35 4.68 2.52z"/><path d="M2596.51 2054.71c1.46 1.97 3.74 3.13 6.16 3.13 4.47-.05 8.17-3.55 8.54-8.08.28-2.32-.45-4.66-2.02-6.38a8.01 8.01 0 0 0-5.92-2.9c-1.97-.04-3.89.6-5.45 1.81-1.99 1.44-3.14 3.79-3.08 6.27a11.24 11.24 0 0 0 1.77 6.15zm1.42-11.45c1.36-1.07 3.03-1.63 4.74-1.57h.6c1.92.03 3.74.91 4.97 2.41 1.38 1.49 2.03 3.52 1.78 5.54-.31 4.15-3.86 7.27-7.94 7-2.02 0-3.91-.99-5.09-2.66-1.13-1.57-1.71-3.48-1.66-5.42.02-2.08.98-4.04 2.6-5.3zm36.48 144.37v-11.96c-25.2-1.17-45.01-21.38-45.01-45.91s19.81-44.74 45.01-45.91v-11.96c-31.88 1.32-57.04 26.84-57.04 57.87s25.16 56.55 57.04 57.87z"/><path d="M2577.37 2129.76c.27 31.49 25.51 57.09 57.04 57.87l-.51-12.98c-24.03-1.14-42.92-20.93-42.92-44.94s18.89-43.8 42.92-44.95v-12.87c-31.29 1.16-56.16 26.62-56.53 57.87zm1.03 0c.35-30.49 24.47-55.42 54.98-56.84v10.81c-24.59 1.17-43.92 21.41-43.92 45.98s19.33 44.81 43.92 45.97v10.81c-30.5-1.36-54.62-26.26-54.98-56.73zm58.49-91.76v12.28c43.35 1.56 77.69 37.31 77.69 80.88s-34.34 79.32-77.69 80.88V2224c51.14 0 92.59-41.64 92.59-93s-41.45-93-92.59-93z"/><path d="M2636.89 2210.36v12.92l.42.72c51.19-.96 92.18-42.32 92.17-93 .01-50.68-40.98-92.04-92.17-93v12.71c44.04 1.07 79.18 36.69 79.23 80.29-.61 43.38-35.83 78.47-79.65 79.36zm1.05 11.37v-10.34c43.97-1.55 78.81-37.29 78.81-80.85s-34.84-79.31-78.81-80.86v-10.34c50.19 1.45 90.23 41.95 90.6 91.66-.87 49.35-40.77 89.3-90.6 90.73z"/></g><path d="M2822.28 2173.98c-5.64 0-10.7-.92-15.18-2.75-4.47-1.83-8.06-4.55-10.78-8.14-2.64-3.59-4.03-7.92-4.18-12.98h20.02c.3 2.86 1.29 5.06 2.97 6.6 1.69 1.47 3.89 2.2 6.6 2.2 2.79 0 4.99-.62 6.6-1.87 1.62-1.32 2.42-3.12 2.42-5.39 0-1.91-.66-3.48-1.98-4.73-1.24-1.25-2.82-2.27-4.73-3.08-1.83-.81-4.47-1.72-7.92-2.75-4.98-1.54-9.05-3.08-12.21-4.62-3.15-1.54-5.86-3.81-8.14-6.82-2.27-3.01-3.41-6.93-3.41-11.77 0-7.19 2.61-12.8 7.81-16.83 5.21-4.11 11.99-6.16 20.35-6.16 8.51 0 15.37 2.05 20.57 6.16 5.21 4.03 8 9.68 8.36 16.94h-20.35c-.14-2.49-1.06-4.44-2.75-5.83-1.68-1.47-3.85-2.2-6.49-2.2-2.27 0-4.1.62-5.5 1.87-1.39 1.17-2.09 2.9-2.09 5.17 0 2.49 1.18 4.44 3.52 5.83 2.35 1.39 6.02 2.9 11 4.51 4.99 1.69 9.02 3.3 12.1 4.84 3.16 1.54 5.87 3.78 8.14 6.71 2.28 2.93 3.41 6.71 3.41 11.33 0 4.4-1.13 8.4-3.41 11.99-2.2 3.59-5.42 6.45-9.68 8.58-4.25 2.13-9.27 3.19-15.07 3.19zm58.55-53.46c1.83-2.86 4.36-5.17 7.59-6.93s7-2.64 11.33-2.64c5.06 0 9.64 1.28 13.75 3.85s7.33 6.23 9.68 11c2.42 4.77 3.63 10.3 3.63 16.61s-1.21 11.88-3.63 16.72c-2.35 4.77-5.57 8.47-9.68 11.11-4.11 2.57-8.69 3.85-13.75 3.85-4.25 0-8.03-.88-11.33-2.64-3.23-1.76-5.76-4.03-7.59-6.82v37.84h-18.81v-90.64h18.81v8.69zm26.84 21.89c0-4.69-1.32-8.36-3.96-11-2.57-2.71-5.76-4.07-9.57-4.07-3.74 0-6.93 1.36-9.57 4.07-2.57 2.71-3.85 6.42-3.85 11.11s1.28 8.4 3.85 11.11c2.64 2.71 5.83 4.07 9.57 4.07s6.93-1.36 9.57-4.07c2.64-2.79 3.96-6.53 3.96-11.22zm25.27 0c0-6.31 1.17-11.84 3.52-16.61 2.42-4.77 5.68-8.43 9.79-11 4.1-2.57 8.69-3.85 13.75-3.85 4.32 0 8.1.88 11.33 2.64 3.3 1.76 5.83 4.07 7.59 6.93v-8.69h18.81v61.38h-18.81v-8.69c-1.84 2.86-4.4 5.17-7.7 6.93-3.23 1.76-7.01 2.64-11.33 2.64-4.99 0-9.54-1.28-13.64-3.85-4.11-2.64-7.37-6.34-9.79-11.11-2.35-4.84-3.52-10.41-3.52-16.72zm45.98.11c0-4.69-1.32-8.4-3.96-11.11-2.57-2.71-5.72-4.07-9.46-4.07s-6.93 1.36-9.57 4.07c-2.57 2.64-3.85 6.31-3.85 11s1.28 8.43 3.85 11.22c2.64 2.71 5.83 4.07 9.57 4.07s6.89-1.36 9.46-4.07c2.64-2.71 3.96-6.42 3.96-11.11zm28.68 0c0-6.38 1.28-11.95 3.85-16.72 2.64-4.77 6.27-8.43 10.89-11 4.69-2.57 10.04-3.85 16.06-3.85 7.7 0 14.11 2.02 19.25 6.05 5.2 4.03 8.61 9.72 10.23 17.05h-20.02c-1.69-4.69-4.95-7.04-9.79-7.04-3.45 0-6.2 1.36-8.25 4.07-2.06 2.64-3.08 6.45-3.08 11.44s1.02 8.84 3.08 11.55c2.05 2.64 4.8 3.96 8.25 3.96 4.84 0 8.1-2.35 9.79-7.04h20.02c-1.62 7.19-5.03 12.83-10.23 16.94-5.21 4.11-11.63 6.16-19.25 6.16-6.02 0-11.37-1.28-16.06-3.85-4.62-2.57-8.25-6.23-10.89-11-2.57-4.77-3.85-10.34-3.85-16.72zm128.2-.99c0 1.76-.11 3.59-.33 5.5h-42.57c.29 3.81 1.5 6.75 3.63 8.8 2.2 1.98 4.87 2.97 8.03 2.97 4.69 0 7.95-1.98 9.79-5.94h20.02c-1.03 4.03-2.9 7.66-5.61 10.89-2.64 3.23-5.98 5.76-10.01 7.59-4.04 1.83-8.55 2.75-13.53 2.75-6.02 0-11.37-1.28-16.06-3.85-4.7-2.57-8.36-6.23-11-11s-3.96-10.34-3.96-16.72 1.28-11.95 3.85-16.72c2.64-4.77 6.3-8.43 11-11 4.69-2.57 10.08-3.85 16.17-3.85 5.94 0 11.22 1.25 15.84 3.74s8.21 6.05 10.78 10.67c2.64 4.62 3.96 10.01 3.96 16.17zm-19.25-4.95c0-3.23-1.1-5.79-3.3-7.7s-4.95-2.86-8.25-2.86c-3.16 0-5.83.92-8.03 2.75-2.13 1.83-3.45 4.44-3.96 7.81h23.54zm54.14 37.51c-5.35 0-10.12-.92-14.3-2.75s-7.48-4.33-9.9-7.48c-2.42-3.23-3.78-6.82-4.07-10.78h18.59c.22 2.13 1.21 3.85 2.97 5.17s3.92 1.98 6.49 1.98c2.35 0 4.14-.44 5.39-1.32 1.32-.95 1.98-2.16 1.98-3.63 0-1.76-.92-3.04-2.75-3.85-1.83-.88-4.8-1.83-8.91-2.86-4.4-1.03-8.07-2.09-11-3.19-2.93-1.17-5.46-2.97-7.59-5.39-2.13-2.49-3.19-5.83-3.19-10.01 0-3.52.95-6.71 2.86-9.57 1.98-2.93 4.84-5.24 8.58-6.93 3.81-1.69 8.32-2.53 13.53-2.53 7.7 0 13.75 1.91 18.15 5.72 4.47 3.81 7.04 8.87 7.7 15.18h-17.38c-.29-2.13-1.25-3.81-2.86-5.06-1.54-1.25-3.59-1.87-6.16-1.87-2.2 0-3.89.44-5.06 1.32-1.17.81-1.76 1.94-1.76 3.41 0 1.76.92 3.08 2.75 3.96 1.91.88 4.84 1.76 8.8 2.64 4.55 1.17 8.25 2.35 11.11 3.52 2.86 1.1 5.35 2.93 7.48 5.5 2.2 2.49 3.34 5.87 3.41 10.12 0 3.59-1.03 6.82-3.08 9.68-1.98 2.79-4.88 4.99-8.69 6.6-3.74 1.61-8.1 2.42-13.09 2.42zm87.62-.11c-5.65 0-10.71-.92-15.18-2.75s-8.07-4.55-10.78-8.14c-2.64-3.59-4.03-7.92-4.18-12.98h20.02c.29 2.86 1.28 5.06 2.97 6.6 1.69 1.47 3.89 2.2 6.6 2.2 2.79 0 4.99-.62 6.6-1.87 1.61-1.32 2.42-3.12 2.42-5.39 0-1.91-.66-3.48-1.98-4.73-1.25-1.25-2.82-2.27-4.73-3.08-1.83-.81-4.47-1.72-7.92-2.75-4.99-1.54-9.06-3.08-12.21-4.62s-5.87-3.81-8.14-6.82-3.41-6.93-3.41-11.77c0-7.19 2.6-12.8 7.81-16.83 5.21-4.11 11.99-6.16 20.35-6.16 8.51 0 15.36 2.05 20.57 6.16 5.21 4.03 7.99 9.68 8.36 16.94h-20.35c-.15-2.49-1.06-4.44-2.75-5.83-1.69-1.47-3.85-2.2-6.49-2.2-2.27 0-4.11.62-5.5 1.87-1.39 1.17-2.09 2.9-2.09 5.17 0 2.49 1.17 4.44 3.52 5.83s6.01 2.9 11 4.51c4.99 1.69 9.02 3.3 12.1 4.84 3.15 1.54 5.87 3.78 8.14 6.71s3.41 6.71 3.41 11.33c0 4.4-1.14 8.4-3.41 11.99-2.2 3.59-5.43 6.45-9.68 8.58s-9.28 3.19-15.07 3.19zm73.94-16.72v15.95h-9.57c-6.82 0-12.13-1.65-15.95-4.95-3.81-3.37-5.72-8.84-5.72-16.39v-24.42h-7.48v-15.62h7.48v-14.96h18.81v14.96h12.32v15.62h-12.32v24.64c0 1.83.44 3.15 1.32 3.96s2.35 1.21 4.4 1.21h6.71zm38.42 16.83c-6.01 0-11.44-1.28-16.28-3.85-4.76-2.57-8.54-6.23-11.33-11-2.71-4.77-4.07-10.34-4.07-16.72 0-6.31 1.4-11.84 4.18-16.61 2.79-4.84 6.6-8.54 11.44-11.11s10.27-3.85 16.28-3.85c6.02 0 11.44 1.28 16.28 3.85s8.66 6.27 11.44 11.11c2.79 4.77 4.18 10.3 4.18 16.61s-1.43 11.88-4.29 16.72c-2.78 4.77-6.63 8.43-11.55 11-4.84 2.57-10.26 3.85-16.28 3.85zm0-16.28c3.6 0 6.64-1.32 9.13-3.96 2.57-2.64 3.85-6.42 3.85-11.33s-1.24-8.69-3.74-11.33c-2.42-2.64-5.42-3.96-9.02-3.96-3.66 0-6.71 1.32-9.13 3.96-2.42 2.57-3.63 6.34-3.63 11.33 0 4.91 1.18 8.69 3.52 11.33 2.42 2.64 5.43 3.96 9.02 3.96zm60.91-35.75c2.2-3.37 4.95-6.01 8.25-7.92 3.3-1.98 6.97-2.97 11-2.97v19.91h-5.17c-4.69 0-8.21 1.03-10.56 3.08-2.35 1.98-3.52 5.5-3.52 10.56v28.49h-18.81v-61.38h18.81v10.23zm24.5 20.35c0-6.31 1.18-11.84 3.52-16.61 2.42-4.77 5.69-8.43 9.79-11 4.11-2.57 8.69-3.85 13.75-3.85 4.33 0 8.11.88 11.33 2.64 3.3 1.76 5.83 4.07 7.59 6.93v-8.69h18.81v61.38h-18.81v-8.69c-1.83 2.86-4.4 5.17-7.7 6.93-3.22 1.76-7 2.64-11.33 2.64-4.98 0-9.53-1.28-13.64-3.85-4.1-2.64-7.37-6.34-9.79-11.11-2.34-4.84-3.52-10.41-3.52-16.72zm45.98.11c0-4.69-1.32-8.4-3.96-11.11-2.56-2.71-5.72-4.07-9.46-4.07s-6.93 1.36-9.57 4.07c-2.56 2.64-3.85 6.31-3.85 11s1.29 8.43 3.85 11.22c2.64 2.71 5.83 4.07 9.57 4.07s6.9-1.36 9.46-4.07c2.64-2.71 3.96-6.42 3.96-11.11zm55.74-31.57c4.33 0 8.1.88 11.33 2.64 3.3 1.76 5.83 4.07 7.59 6.93v-8.69h18.81v61.27c0 5.65-1.14 10.74-3.41 15.29-2.2 4.62-5.61 8.29-10.23 11-4.55 2.71-10.23 4.07-17.05 4.07-9.09 0-16.46-2.16-22.11-6.49-5.65-4.25-8.87-10.05-9.68-17.38h18.59c.59 2.35 1.98 4.18 4.18 5.5 2.2 1.39 4.91 2.09 8.14 2.09 3.89 0 6.97-1.14 9.24-3.41 2.35-2.2 3.52-5.76 3.52-10.67v-8.69c-1.83 2.86-4.36 5.21-7.59 7.04-3.23 1.76-7 2.64-11.33 2.64-5.06 0-9.64-1.28-13.75-3.85-4.11-2.64-7.37-6.34-9.79-11.11-2.35-4.84-3.52-10.41-3.52-16.72s1.17-11.84 3.52-16.61c2.42-4.77 5.68-8.43 9.79-11s8.69-3.85 13.75-3.85zm18.92 31.57c0-4.69-1.32-8.4-3.96-11.11-2.57-2.71-5.72-4.07-9.46-4.07s-6.93 1.36-9.57 4.07c-2.57 2.64-3.85 6.31-3.85 11s1.28 8.43 3.85 11.22c2.64 2.71 5.83 4.07 9.57 4.07s6.89-1.36 9.46-4.07c2.64-2.71 3.96-6.42 3.96-11.11zm90.28-.99c0 1.76-.11 3.59-.33 5.5h-42.57c.29 3.81 1.5 6.75 3.63 8.8 2.2 1.98 4.87 2.97 8.03 2.97 4.69 0 7.95-1.98 9.79-5.94h20.02c-1.03 4.03-2.9 7.66-5.61 10.89-2.64 3.23-5.98 5.76-10.01 7.59-4.04 1.83-8.55 2.75-13.53 2.75-6.02 0-11.37-1.28-16.06-3.85-4.7-2.57-8.36-6.23-11-11s-3.96-10.34-3.96-16.72 1.28-11.95 3.85-16.72c2.64-4.77 6.3-8.43 11-11 4.69-2.57 10.08-3.85 16.17-3.85 5.94 0 11.22 1.25 15.84 3.74s8.21 6.05 10.78 10.67c2.64 4.62 3.96 10.01 3.96 16.17zm-19.25-4.95c0-3.23-1.1-5.79-3.3-7.7s-4.95-2.86-8.25-2.86c-3.16 0-5.83.92-8.03 2.75-2.13 1.83-3.45 4.44-3.96 7.81h23.54z"/></g><g stroke="#fff"><path d="M4022.9 7.495L1087.24 175.486c-60.79 3.478-104.383 60.013-92.296 119.687l12.576 62.091c3.29 16.24 2.49 33.043-2.32 48.898l-68.567 225.877c-5.634 18.558-5.749 38.354-.332 56.977l68.779 236.45a100.03 100.03 0 0 1 1.15 51.551l-70.345 289.363a100.01 100.01 0 0 0 5.296 63.11l106.019 246.67c11.42 26.58 10.77 56.79-1.77 82.86l-56.243 116.84a100.02 100.02 0 0 0-5.293 73.36l73.816 234.86c4.9 15.59 5.91 32.14 2.93 48.2l-26.21 141.51c-11.39 61.48 35.8 118.21 98.33 118.21h2839.07c41.61 0 78.88-25.77 93.56-64.71l167.04-442.89c9.33-24.74 8.48-52.17-2.36-76.29l-128.52-285.86c-10.3-22.92-11.6-48.87-3.64-72.7l105.46-315.63a99.98 99.98 0 0 0-10.99-86.17l-119.39-183.786a99.99 99.99 0 0 1-4.57-101.191l118.88-225.019c18.96-35.9 14.34-79.704-11.7-110.853l-58.8-70.326c-19.74-23.607-27.51-54.987-21.06-85.077l30.66-143.232c13.82-64.55-37.59-124.543-103.5-120.771z"/><path d="M2233 2392v1572l687-47.96V2392"/></g><path d="M764.27 1013.44L377.51 868.38c-41.991-15.749-54.867-68.886-24.741-102.11l204.654-225.701c30.125-33.224 84.265-25.595 104.037 14.659l182.106 370.759c25.347 51.606-25.463 107.643-79.296 87.453zm-69.198 322.01l-395.375 119.6c-42.927 12.98-85.423-21.42-81.662-66.11l25.551-303.6c3.762-44.69 51.409-71.5 91.562-51.52l369.824 184c51.475 25.61 45.132 100.98-9.9 117.63zm167.942 313.26l-227.216 344.96c-24.67 37.45-79.339 38.22-105.054 1.48l-174.696-249.61c-25.716-36.74-6.271-87.84 37.366-98.2l401.912-95.35c55.942-13.27 99.314 48.7 67.688 96.72z" stroke="#ddd"/><defs ><path id="B" d="M3673.36 1817.4c6.89 0 12.47-3.68 12.47-8.23 0-4.54-5.58-8.23-12.47-8.23-6.88 0-12.46 3.69-12.46 8.23 0 4.55 5.58 8.23 12.46 8.23z"/><path id="C" d="M2666.24 2178.53c3.88 0 7.03-3.14 7.03-7.02s-3.15-7.03-7.03-7.03-7.03 3.15-7.03 7.03 3.15 7.02 7.03 7.02z"/></defs></svg>