<svg xmlns="http://www.w3.org/2000/svg" viewBox="0 0 300 80" fill="currentColor">
  <!-- Delorme logo - simplified version -->
  <g>
    <!-- d -->
    <path d="M10 15 L10 65 L25 65 C35 65 42 58 42 40 C42 22 35 15 25 15 Z M18 22 L24 22 C30 22 34 26 34 40 C34 54 30 58 24 58 L18 58 Z"/>
    <circle cx="15" cy="20" r="3.5" fill="currentColor"/>

    <!-- e -->
    <path d="M52 65 L82 65 L82 58 L60 58 L60 43 L80 43 L80 36 L60 36 L60 22 L82 22 L82 15 L52 15 Z"/>

    <!-- l -->
    <path d="M92 15 L92 65 L100 65 L100 15 Z"/>

    <!-- o -->
    <path d="M110 40 C110 53 117 66 130 66 C143 66 150 53 150 40 C150 27 143 14 130 14 C117 14 110 27 110 40 Z M118 40 C118 30 122 21 130 21 C138 21 142 30 142 40 C142 50 138 59 130 59 C122 59 118 50 118 40 Z"/>

    <!-- r -->
    <path d="M160 25 L160 32 C163 27 168 24 173 24 L173 32 C167 32 160 36 160 46 L160 65 L168 65 L168 25 Z"/>

    <!-- m -->
    <path d="M180 25 L180 32 C183 27 188 24 193 24 C198 24 202 26 204 31 C207 26 212 24 217 24 C224 24 228 28 228 36 L228 65 L236 65 L236 37 C236 32 234 30 230 30 C225 30 220 34 220 42 L220 65 L228 65 L228 37 C228 32 226 30 222 30 C217 30 212 34 212 42 L212 65 L220 65 L220 25 Z"/>

    <!-- e -->
    <path d="M246 65 L276 65 L276 58 L254 58 L254 43 L274 43 L274 36 L254 36 L254 22 L276 22 L276 15 L246 15 Z"/>

    <!-- . dot -->
    <circle cx="285" cy="60" r="4" fill="currentColor"/>
  </g>
</svg>
