<?xml version="1.0" encoding="iso-8859-1"?>
<!-- Uploaded to: SVG Repo, www.svgrepo.com, Generator: SVG Repo Mixer Tools -->
<svg height="800px" width="800px" version="1.1" id="Layer_1" xmlns="http://www.w3.org/2000/svg" xmlns:xlink="http://www.w3.org/1999/xlink" 
	 viewBox="0 0 511.999 511.999" xml:space="preserve">
<path style="fill:#EE8700;" d="M299.3,164.566l6.602,323.094c0.188,9.181-7.203,16.724-16.386,16.724h-62.14
	c-9.183,0-16.574-7.543-16.386-16.724l6.602-323.095l2.64-129.208l0.239-11.691c0.183-8.919,7.465-16.054,16.387-16.054h43.179
	c8.921,0,16.203,7.135,16.386,16.054l0.239,11.691L299.3,164.566z"/>
<path style="opacity:0.53;fill:#AA6100;enable-background:new    ;" d="M299.278,164.566l-2.64-129.209l-0.238-11.691
	c-0.173-8.45-6.72-15.287-14.994-15.985l0.044,2.15l2.64,129.209l6.602,323.094c0.188,9.181-7.203,16.724-16.386,16.724h-62.14
	c-0.343,0-0.678-0.031-1.016-0.052l-0.181,8.854c-0.188,9.181,7.203,16.724,16.386,16.724h62.14c9.183,0,16.574-7.543,16.386-16.724
	L299.278,164.566z"/>
<path style="fill:#3E3B43;" d="M391.957,160.07c0,2.484-2.013,4.496-4.496,4.496H299.3h-84.102h-70.341
	c-1.241,0-2.428-0.514-3.277-1.418l-46.923-49.955c-6.986-7.437-6.986-19.024,0-26.462l46.925-49.955
	c0.85-0.904,2.036-1.418,3.277-1.418h75.373h76.43h90.801c2.484,0,4.496,2.013,4.496,4.496V160.07H391.957z"/>
<path style="opacity:0.29;enable-background:new    ;" d="M141.569,163.025c0.854,0.978,2.089,1.54,3.388,1.54h70.242h84.102h88.161
	c2.484,0,4.496-2.013,4.496-4.496V39.854c0-2.484-2.013-4.496-4.496-4.496h-13.528v83.365c0,13.911-11.277,25.187-25.187,25.187
	h-67.47h-84.102h-72.286L141.569,163.025z"/>
<path style="fill:#3E3B43;" d="M418.878,138.315h-26.92V52.053h26.92c2.037,0,3.689,1.651,3.689,3.689v78.884
	C422.567,136.664,420.915,138.315,418.878,138.315z"/>
<path style="opacity:0.38;enable-background:new    ;" d="M269.61,164.141l78.506-128.782H243.788l-74.339,121.945
	c-1.827,2.996,0.33,6.837,3.84,6.837H269.61z"/>
<polygon style="opacity:0.38;enable-background:new    ;" points="414.581,138.315 391.957,138.315 391.957,52.053 407.263,52.053 
	"/>
<path d="M422.567,44.441h-22.996v-9.083c0-4.205-3.407-7.613-7.612-7.613h-87.84l-0.086-4.233C303.768,10.548,293.003,0,280.035,0
	h-43.179c-12.967,0-23.732,10.548-23.998,23.511l-0.086,4.234h-69.859c-2.101,0-4.11,0.869-5.548,2.4L89.108,81.519
	c-9.715,10.341-9.715,26.543,0,36.885l48.256,51.373c1.438,1.532,3.447,2.4,5.548,2.4h66.909l-5.544,271.317
	c-0.585,6.369-0.904,12.881-0.904,19.545c0,0.901,0.164,1.762,0.453,2.565l-0.448,21.9c-0.133,6.503,2.301,12.643,6.852,17.289
	c4.551,4.646,10.64,7.204,17.144,7.204h47.376c0.009,0,0.017,0.002,0.026,0.002c0.014,0,0.028-0.002,0.043-0.002h14.694
	c6.504,0,12.593-2.559,17.145-7.204c4.552-4.646,6.985-10.785,6.852-17.289l-5.746-281.197c0-0.01,0-0.019-0.001-0.029
	l-0.696-34.101h84.889c4.205,0,7.612-3.407,7.612-7.613v-18.638h22.996c4.205,0,7.612-3.407,7.612-7.613v-86.26
	C430.179,47.849,426.771,44.441,422.567,44.441z M254.743,188.178c0,7.417-6.033,13.45-13.45,13.45
	c-7.416,0-13.449-6.033-13.449-13.45c0-7.416,6.033-13.449,13.449-13.449C248.709,174.729,254.743,180.764,254.743,188.178z
	 M217.668,156.954c-0.026,0-0.053-0.001-0.079-0.001c-0.007,0-0.013,0.001-0.02,0.001h-38.99L248.062,42.97h86.497l-69.484,113.984
	H217.668z M228.08,23.823c0.097-4.741,4.034-8.598,8.776-8.598h43.179c4.742,0,8.678,3.857,8.776,8.598l0.08,3.922h-60.89
	L228.08,23.823z M100.205,107.981c-4.223-4.497-4.223-11.541,0-16.038l46.002-48.973h84.025l-69.485,113.984h-14.541
	L100.205,107.981z M222.693,287.522c7.415-2.128,20.867-6.657,35.001-14.711c15.075-8.591,27.025-19.011,35.573-30.888l0.743,36.347
	c-18.621,16.29-52.515,50.652-73.164,99.707L222.693,287.522z M221.106,494.138c-1.665-1.699-2.554-3.944-2.505-6.322l0.888-43.448
	c6.566-69.43,48.373-120.129,74.937-145.793l0.224,10.965c-3.805,6.787-16.58,30.762-26.318,63.141
	c-13.771,45.793-15.191,88.417-4.251,124.092h-36.704C224.997,496.773,222.771,495.837,221.106,494.138z M295.784,494.138
	c-1.665,1.699-3.891,2.635-6.27,2.635h-9.42c-14.574-42.11-6.715-87.869,2.711-119.357c3.91-13.059,8.393-24.771,12.527-34.419
	l2.959,144.818C298.34,490.194,297.45,492.439,295.784,494.138z M292.532,205.918c-7.323,40.715-50.194,59.201-69.51,65.544
	l1.231-60.238c4.767,3.534,10.664,5.629,17.041,5.629c15.812,0,28.675-12.863,28.675-28.675c0-5.921-1.804-11.427-4.89-16h26.766
	L292.532,205.918z M384.345,156.954H282.908L352.392,42.97h31.953v9.083v86.261V156.954z M414.954,130.703h-15.383V59.666h15.383
	V130.703z"/>
</svg>